<mxfile host="Electron" modified="2023-10-07T21:20:16.265Z" agent="Mozilla/5.0 (Windows NT 10.0; Win64; x64) AppleWebKit/537.36 (KHTML, like Gecko) draw.io/21.7.5 Chrome/114.0.5735.289 Electron/25.8.1 Safari/537.36" etag="dFHzkGpxob8c9PYhQgGw" version="21.7.5" type="device">
  <diagram id="R2lEEEUBdFMjLlhIrx00" name="Page-1">
    <mxGraphModel dx="1316" dy="550" grid="0" gridSize="10" guides="1" tooltips="1" connect="1" arrows="1" fold="1" page="1" pageScale="1" pageWidth="850" pageHeight="1100" background="#E8E8E8" backgroundImage="{&quot;src&quot;:&quot;data:image/png;base64,iVBORw0KGgoAAAANSUhEUgAAASwAAACFCAYAAADhGcXnAAAABmJLR0QA/wD/AP+gvaeTAAAACXBIWXMAABcSAAAXEgFnn9JSAAAUn0lEQVR42u2deXhc5XWHX0nYsizJyDZe2BwgDhMgkxAgQNlilZCEmoSUpSUkBUIJYQvQFAqYpXmAJKUESlqTsiQtrYFgUtpQMIESMiw2DgYHzGCbwSaWbfACtmW8ydpm8sc5t3PnasaWLGlmJP3e59Fj6c69d+58vvc35zvfWUAIIYQQQgghhBBCCCGEEH1ChYZg5yRi8d2AccB4oApYD6wBWhtTSQ2QEBKsshCqaqAR+BpwvAtWJbARmA88AcwCNki4hJBglVKsxgJXARcDuxfYrc1F60ZgsURLiP5lNw1BXrEaA/wIOA8YtoNdhwOnAROBc4F3NXpC9B+VGoIuYlUJfMMFaFg3rdRjgGmJWLxOIyiEBKuY7Ad8162nnkytzwSO0PAJIcEqJgcDk3bhuDrgpEQsLr+gEBKsovFZoHoXjqsAjgRqNIRCSLCKxcReHDuK7vm9hBASrD6huRfHbgc6NIRCSLCKRbIXopMEWjSEQkiwisUi4INdOK4FeKoxlUxrCIWQYBWLt4EHgc4eHJMBXgLmafiEkGAVjcZUsh34KfAi0F1r6V3g74F1GkEhJFjFZjnwHeApoHUH+6WBN4CLgHnKJRSif1GQYwESsTjAaCyf8HTgQCxsoQLzVy0DEsB0YFljKpnRqAkhwSq1cFViUez7A/tiCeNrfBq4oTGV7NQoCSGEEEIIITQlHOhTv2FAHKgNbU5jMVnvAS1yqgshwSoXwdoDK3f8qYhgNQNvAo8Dc4GUhz4IIYqMKo7mMgIYGdlWhznbv4w522ckYvH7gOWKaheiuCgOq/tUAXsDV2N13E/zJhVCCAlWWQvXIcB9wDWJWLxeQyKEBKvcGQ1cB1yfiMVrNRxCSLDKnRHA5cAFvsoohJBglTU1wDTgWE/nEUJIsMqaccA1Pk0UQkiwypoK4ATgGFlZQkiwBgIjgW+yax13hBASrKJzAnCAhkEICdZAoAGYoGEQQoI1EKgG9tEwCNE/KJewb6kC9vdE6sHMpsZUsk3/3UKCNfC5BDhjEH++NuBKYI7+q4UEa+Azkd61uy8lGax79Ub/dxRQDwwP7bMdq2AhhARLlIwtwKPAI8BKYBsWCPtJ4DLgaN0vQoIlyoH1WNmcRxtTya2h7SsSsfgCrEnsjcD5GipRSrRKKFqwJrAPRcQKgMZUksZUchVwA/AbDZeQYIlSkgRmdmPVbz1wG+puLSRYooQ86WK0Q7wBx2v+I4QESxSddmBhD7pWb8M6CAkhwRJlfw9UoE5LQoIlSsQw4IhELN7d+6AOJXcLCZYoIX9GNwJdvc7X54HDNWRCgiVKRQy4OBGLj9iJWO2FxWqN0pAJCZYoFcOBK4CrE7H46EQsXhERq0pgMnA3cIyGS5QSRboLsHzB64ETgV8kYvFXsFSdCcDJwGluiVUCHRouIcESpaYa81EdiyU/t7qQ1aOVQSHBGpS0AfcDy3pwzL7Ad7Aehz2lA/h3IFXEz9hR5PcTQoLVjw/zzMZU8qXuHpCIxY8EzuuFYD3WmEo+o6EXQwE53YUQEiwhhJBgCSGGLPJhiZ0ya3KsAqgFJgH7A3tjFR4en7o0lRPmkIjF48BfAe8D9zamkts1gkKCJfpbpMCCSg8D/hxLyTkIGOPbnwNm0TUu6xNYk4rXgQewGvBCSLBEv4lVJXAEcBGWazgexWIJCZYoQ7GqAy4GLvUpYF8LVQXWnUcICZbo1RRwHHALcA5Q0w9vU4HFnC0E5nXzmErgi8ApQDNwp/9bTgzHfHwbXYwrgb/EsgdmAJ26w/oGrRKKgDHAj7HOODX9eL9NAQ7swTH7YT6xBcAbWJXUcuN4H7vqkDDHsBZpesZkYYk+tq5GYG28zsKK+pUTe7nV8hBWorkc2d2FNRCnTuAf/Pd23WGysETfiVUwffkWuR2ei8Ewt+YqgQafkoYFcySWfD3MRaEmMr0chYVZTASq8tzbFb59hP8+wr+kq7GFhNrQ/iOw6hS1Ba61xq3Q6tD5q9yKmuzXcgTm9wuurzLP1HEf4GN53meEn2+4X1uDnk9ZWKIrk4C/c0EoNl8GvoQlix/pD/l64F+BxVidri+6KNwNzAHu8vv2ND+2xR/2FcC9wCp/6C8HmoCjXBxux8IztgKHuDi2A/dhoRcX+BiksYTy59yyqwFOB07w69sOzHaL6iHgDKARi027AOvdOMO31wL3+Gc9GPi2C1u7i/B/Ac/6ea8FFvm5xvhnnOPX0qzbVIIl62pyrAr4Jj3zKfUle2JBpo8D3wc2AecCN2OO/58BS4DLgGlYT8S0C91ZfsxirNb8JX7cVVjVjJP9wb8VmA+sxmLETgJucqE4DqsDlnbxeRbzR13jYvcu8BfAV/08TZhv6loX0UeAH2HVKy4GvgtsdqEb79YhLma3YHFrv8Ri144CrvPPlMTi3c4EpgP/48ff7Of7GVpZ1ZRQMAE4u8RfXKuxztOLsej4+92q2Q/4EFjrVs0Kf7jrXczuwoJTt/v2f/Hp1qdDU7L/8Ie/CavvVQk875bNh8ATbr0sAmb6tsf9mj7n1tApmEP9dd/3d26VpUP+qk4XlPbQ9jB/4sc+6ALUArwAPOyfZTe3uJ4Dfg6sAd4EfurCO0K3qgRLwGfdn1JK3vMHNGCzT9sKTVEbgNHA0sj2ZuDVkA+pDfh9REA6XSiCLtcd/n5LyIYedLqg1LtlBPBW5L0W0LP+jIcDL4XeFxe4OT7+o1xQn4zss8Z9ZsN1q0qwNB2EqZhju5R07OJ0J98x7RFrMbpP2sWwu1T7MdH0ozYXmJ64XtrybO8k65xPu1AKCZbIQ7CqNdDY4qIzIbK9DjgUWNmH7/WBi9a4yPZ96EZrtBBJn2JGVzLj/h6bdDtKsMSOqc/zIA4EmoFfYQ7ufciGK5zhry/sw/daC7wNfINsOEMt5hxvCO3X4s9SDeaLiqYzzcWc9Se6tVWJOe0vwHxnbbodu2+qiqFJKdrOZ3wq1R6aErVFpm4Z35YOTRlbIq/PxFYY/xFzxje4oNyE+X1GFphqdtLVKV5oW6ef435sNS9YDfykW0oLyPq93gCWA/+ErSze4Z8z8D0txRz3F/o0vBXzXf0a86kR+czhKawCTyVYokSk/aFe73//n0+XwhZGO3AbtrIH5vC+kdwyNVtcQPbFHONbXBQC/1Srn2Nx5P3/DVsJDPPz0PWEt63z398F/gZznE/EQhmS/vta32c1Fve1r1/DNuC/Q1PADJBwYZvsz91yPy7IPbwd+EPkOpqAH9Azv5sES4g+JCwiK+nqc0pjIQQBm+m6ShdYQU0hYYu+lq8RyII82+Z3Y9tmLBwiTFRcNkWmo6sKTGdfLSDk+a5jS4H9hyzyYQkhJFhCCCHBEkIMWeTDEsWiAlvyL/QlGawOZvrgfcZgPqX+XGGrxxYCtIonwRKDkD2x8IAG/7vG77/N/vdWrIZUUy/fZwS2gvjP5HfW99VzMw3LRXxZ/7USLDH4WI8l8wb1rs7AuvDc7n93kJtT2BsLa0/6N+WoAoujqtd/qwRLDE5ayQ1pOBpLr3lTQyMkWGKg35cHAntgPq1VWNxT2L81Bkt3CaaVi8lNSK50C24PzM+0CPNrBWkxq7HKDqPculuMNZEIqMWK7gXHN2FBpIV8bLXAp4CxmG+rCStMmAl9pqA6aiuW8jMSCzLdi9yKEWAVKRr8HEKCJcqUaqyo31eBdzCf1CSsiN1TLi4HYdHvVT7V3AuLIr/DH/oqrM7XJ1wQGvxcN2BpPre6eO2FpfZMdAG70aelozEf1SSsRM0YF7n7/BqijAeu9v3nYzmak7HKqb/xafDXsR6P6zD/XatPKe/Big5ejkW/B2J7HrYIcbduCQmWKF+OwsofX+pWSiVWAO9Wt4JWu/D8FqsS2uqC8kOslPEv3XI5DMvd+4ML1j1YueXH3QqqxxrFNvnv04FTsTLL3/JzXAh85NdwDFaJdCFWaDCgAkuObgjtX4WVVL7Kp7wHuABf7tbiMCyB+npgg1/jF7DUoYxfzxSs4qiImM1ClAsVWHLwLBeFoLLBa265TMEqNDRgFRtasLSWdVgidLDi2I4lGy/y6dkarDje0f56J1aN9F3/faNbQnG3fj6HJVh/5PunsdXAJFaeOcworNTy3aH9O7G678uAY7F69c9iRf/SLrLPuFi2Y5VIT3XLDj9mjV+/kIUlypTh7rvaz6dUYT7m07+JWA2pjZHXl7oABdOt1ZHXN5BNRt7m+4bZRLZLz3C65gqmfcp2SGR7UBl1RWR7OxZWcSDm35obeX2Lfw4wf9ZHLpQvucX2ICroJ8HaAR2oLlGpSfuDPCvPAz7aRWcfF5QqciuB7kZuWZkdBaBmKNyNOThnvnZf1SErKixMQS2sqLU42oVwq4twRei6asnWI9vq09uzXYh3JzcBXGhK2IVt5M+wF8WjHWthf6hPCZf7zxqse80hvn28C1eYYzEfUm/v6c3+fkFbr4AxmC/thcj+67EyM1+I7D8e88e94uJ7Yki0aoCvkFtP/1UXqiswx/5a3Q6ysHZEm99cX6H4he1ElqeAO7FVtRdcgE7CQgamY/WsZmM1qu5zwTgQawX2Y/J3remplfcwFpW/AStJMxJrNvsh1jgiet/MxBzyGzC/U71bS00+LezE6mPd4Nsa3Fp7PzJlfRL4HuaMV1svCVZhGlNJErH4HDfP6zQi/c5auvqRwHxH17mlcZJ/eWzBVtyCgnd3YuWFr3PLuAYrujcPW4Fb4sdELaFlLkj5Xg9W6zKYg/2HbrGd4dPPN/x9W/y5WUy2wekLmN/sQhfaKmyhIGjSOgFb1XzaLa+t/nNPSGAzvu9v6VlHHgnWEGaxf0MeqaEoiiX1dJ7tGf8/uIxsHfVwWeVg2vYTf72C7Mpbxn+PVijFLaNXfL98r8/21wMBedlFJ3hGtpNbtvk2sn6wdGT/oBR0sP9xmEP9RrKVTD+DrTAG1UTrsdCHn6CEaglWN/kQC/Y7FPWC62/au/F6+06mbi0FBC9fSeEOsg71nb0enu617cCFQDf3nwt8DWsYOxeLAzsNK7ccrBTu7+K7ULdGYeR0z50WZrDGAHM1GqIPWYX53F7DFg5GYa3rZ4SstHVY/faPNFyysHrqW7nFb6w9NByij1iHBbvuSNS0Si0Lq8dWFsCLWCrINo2IEBKschetdizZ9h4UTNrXxOlZ1+Se3sP1WHJ02AdZoWdDgjXYRWurTw3vJ7dsiejd/XY5lhPYF4zC4pbGhrZNAR4APu5/TwIuIVs4sDsMAy4mN7BTSLDKXrQ2YmVGfkB2OVrsOhVu+fSV77QOq8AQjpt7Efg22VzAiVjCck8F60tY/JSQYA0o0dqExdx8HYvVUUJq/4lZxQ5eizawGO7Tv9383zrf7yOsqkIrlq9X5/vsTjauq6rAewWCuru/X13ovNH99OyUAK0Sdk+02hKx+HNYmsaJ/g1+MJa8WtXL0+8sUXcwc4SP4ztYSlQtFq0+y4WnAqsqeqpbO61Ye/vZvu0cP/42LGr++y44p2PVDr6HBW0ehJV/+TXwn779f8mNeToIq3m1DatV9RksReYtP2+zi9cULM+w0u+Hp+ja6l5IsEouWhngw0QsPtNv0n2xhNvjsWqUY/2B6qm/ayi3ijoMuAkrr/KAP/jnYJkG12AVQW93kXkUS3i+0kXpWSwv7w6fsi/HKiMcjFX2fBhrejEf85tNwwKDq4BGrJJoWLAm+ZfRlVilhOlY5535ft5qF7oDsEJ7rVhCdlCoT/FTEqyyFa5NwMJELL7Qb976kB/lgx6ecqOfb9wQdkvcjNWBymB1re71L4QJWJ7gc1iu3zIsLWecj9v7Lvjvk5tIDBYJvxarvNCC1avaxs676TRjeYYtfmxw3ikusBeR7e6zCEu4PhNbVRYSrLIWL7B0jmayibA9pRlYSXZVa6ixxK2YYFr8nlsrE/21dVi/wlmYb+odn4oVm4NcvKrJXT1cAhwuwZJgDRW2uv9lyhD9/C3kFtMLfHoVbiFdiiUO/6lbN+uwJOKmPr6OncVqjcH8WtMi20f69DJcnE9IsAbvFDMRi7/lUxitPOWyB+avehrzWU3EOupcifmNeiNOVXkEqWonlvBszAEf5gBsVVFiVST/gSg9z6AaSPk4FHO+D3cr7H1swWMsFnaQ7sZ9HCxoBGLUgfnBPh46rhaL1Qq+wNNYhkM4dmsB5tAfjfnNgvI057kFKGRhDRmWAAng3CHwWTM92Gch8NfYSmJQluUUrDLndt/vPWz17g2s802UwO90BVYA8FdYytUNLlQpF6u9ySYft2F+xfOxSqevYrWyZgN3Ab/AnP6nuBV4u25hCdZQmhZ2JGLxB/0BGDuIP2oaeAJznIM50SvJDeto933ec4H5W+DzLhybsAJ3gZN+u0/RjvN7udVFZwbZAN91wLXAp92yasNWHTe6UB3lQncHttobNLG4A4vLGunHtWKxXMf4MTV+Hc9j4RJCgjWkeBF4DAtKHQg15TO7eMxjob/nAr+LnKsTi8kKWOUWTSFWYDFXYR6JiOTv/SfMPP8pxEqsVnuYrZgv7VndrqVBPqzysbLasJieeQPkkjdTuFVWfwufkGCJMmAJ1lhhxQC41pV0LSkshARrCFlZYB1YrhgAorV06tJUPuuoA4so367/USHBGvyilcYSc8/FVqY6y/AyW7A0mXy8jC0eXEH+Zg9C7DJyupepaCVi8eeBs7Bed+dj+XPl8gWzCGuokO/a12HL/0LIwhpK08PGVLIJW7Y/GUsQTmLO7lJWd8hgXYy1lC9kYYkuwtUGvJ6IxRdgnYT3x6oYHIClkzQV+ZKWA08W8F8JIcES/+/bWu0/pSKNRYmr2afQlFCUNRms2ueMqUtTnRoOIcES5cxCLBFZzT6FBEuUNW8DlwHJqUtTGg0hwRJlSRorXXwu8KIc7aLUyOkuCtGM1aufDjTJshISLFFuZLD4qieBh4A5U5em1PVaSLBEyenEOtFUYp1+3sIqRbwKvCmhEhIsUU58AJyNFbTbCGyaujSl6gtCCCGEEEIIIYQQQgghhBBDgT8CiKUxU3xRK9MAAAAldEVYdGRhdGU6Y3JlYXRlADIwMTgtMDktMjZUMDE6NTM6MTQtMDY6MDAW9Uu5AAAAJXRFWHRkYXRlOm1vZGlmeQAyMDE4LTA5LTI2VDAxOjUzOjE0LTA2OjAwZ6jzBQAAABl0RVh0U29mdHdhcmUAQWRvYmUgSW1hZ2VSZWFkeXHJZTwAAAAASUVORK5CYII=&quot;,&quot;width&quot;:&quot;300&quot;,&quot;height&quot;:&quot;133&quot;,&quot;x&quot;:0,&quot;y&quot;:0}" math="0" shadow="0" extFonts="Permanent Marker^https://fonts.googleapis.com/css?family=Permanent+Marker">
      <root>
        <mxCell id="0" />
        <mxCell id="1" parent="0" />
        <mxCell id="7eaRc9s0AeY9biqjr4J9-1" value="&lt;font style=&quot;font-size: 14px;&quot;&gt;Student&lt;/font&gt;" style="rounded=1;whiteSpace=wrap;html=1;fillColor=#FFE599;strokeColor=#0F8B8D;shadow=1;fontStyle=1;fontFamily=Times New Roman;strokeWidth=2;labelBackgroundColor=none;fontColor=#143642;" parent="1" vertex="1">
          <mxGeometry x="850" y="251" width="120" height="60" as="geometry" />
        </mxCell>
        <mxCell id="7eaRc9s0AeY9biqjr4J9-2" value="&lt;u&gt;St-SSN&lt;/u&gt;" style="ellipse;whiteSpace=wrap;html=1;strokeColor=#0F8B8D;fillColor=none;fontStyle=1;fontFamily=Times New Roman;rounded=1;labelBackgroundColor=none;fontColor=#143642;strokeWidth=2;" parent="1" vertex="1">
          <mxGeometry x="780" y="161" width="60" height="30" as="geometry" />
        </mxCell>
        <mxCell id="7eaRc9s0AeY9biqjr4J9-4" value="Fname" style="ellipse;whiteSpace=wrap;html=1;strokeColor=#0F8B8D;fillColor=none;fontStyle=1;fontFamily=Times New Roman;rounded=1;labelBackgroundColor=none;fontColor=#143642;strokeWidth=2;" parent="1" vertex="1">
          <mxGeometry x="830" y="141" width="60" height="30" as="geometry" />
        </mxCell>
        <mxCell id="7eaRc9s0AeY9biqjr4J9-6" value="Lname" style="ellipse;whiteSpace=wrap;html=1;strokeColor=#0F8B8D;fillColor=none;fontStyle=1;fontFamily=Times New Roman;rounded=1;labelBackgroundColor=none;fontColor=#143642;strokeWidth=2;" parent="1" vertex="1">
          <mxGeometry x="890" y="131" width="60" height="30" as="geometry" />
        </mxCell>
        <mxCell id="7eaRc9s0AeY9biqjr4J9-7" value="Faculty" style="ellipse;whiteSpace=wrap;html=1;strokeColor=#0F8B8D;fillColor=none;fontStyle=1;fontFamily=Times New Roman;rounded=1;labelBackgroundColor=none;fontColor=#143642;strokeWidth=2;" parent="1" vertex="1">
          <mxGeometry x="950" y="151" width="60" height="30" as="geometry" />
        </mxCell>
        <mxCell id="7eaRc9s0AeY9biqjr4J9-8" value="&lt;span style=&quot;font-size: 14px;&quot;&gt;Graduate&lt;/span&gt;" style="shape=ext;margin=3;double=1;whiteSpace=wrap;html=1;align=center;rounded=1;fillColor=#FFE599;strokeColor=#0F8B8D;shadow=1;fontStyle=1;fontFamily=Times New Roman;strokeWidth=2;labelBackgroundColor=none;fontColor=#143642;" parent="1" vertex="1">
          <mxGeometry x="391" y="107" width="120" height="60" as="geometry" />
        </mxCell>
        <mxCell id="7eaRc9s0AeY9biqjr4J9-10" value="Grad-Year" style="ellipse;whiteSpace=wrap;html=1;strokeColor=#0F8B8D;fillColor=none;fontStyle=1;fontFamily=Times New Roman;rounded=1;labelBackgroundColor=none;fontColor=#143642;strokeWidth=2;" parent="1" vertex="1">
          <mxGeometry x="1002.5" y="171" width="70" height="30" as="geometry" />
        </mxCell>
        <mxCell id="7eaRc9s0AeY9biqjr4J9-11" value="City" style="ellipse;whiteSpace=wrap;html=1;strokeColor=#0F8B8D;fillColor=none;fontStyle=1;fontFamily=Times New Roman;rounded=1;labelBackgroundColor=none;fontColor=#143642;strokeWidth=2;" parent="1" vertex="1">
          <mxGeometry x="1030" y="204" width="60" height="30" as="geometry" />
        </mxCell>
        <mxCell id="7eaRc9s0AeY9biqjr4J9-12" value="Email" style="ellipse;whiteSpace=wrap;html=1;strokeColor=#0F8B8D;fillColor=none;fontStyle=1;fontFamily=Times New Roman;rounded=1;labelBackgroundColor=none;fontColor=#143642;strokeWidth=2;" parent="1" vertex="1">
          <mxGeometry x="1021.5" y="239" width="55" height="30" as="geometry" />
        </mxCell>
        <mxCell id="7eaRc9s0AeY9biqjr4J9-13" value="Age" style="ellipse;whiteSpace=wrap;html=1;strokeColor=#0F8B8D;fillColor=none;fontStyle=1;fontFamily=Times New Roman;rounded=1;labelBackgroundColor=none;fontColor=#143642;strokeWidth=2;" parent="1" vertex="1">
          <mxGeometry x="1000" y="289" width="65" height="30" as="geometry" />
        </mxCell>
        <mxCell id="7eaRc9s0AeY9biqjr4J9-17" value="Password" style="ellipse;whiteSpace=wrap;html=1;strokeColor=#0F8B8D;fillColor=none;fontStyle=1;fontFamily=Times New Roman;rounded=1;labelBackgroundColor=none;fontColor=#143642;strokeWidth=2;" parent="1" vertex="1">
          <mxGeometry x="990" y="331" width="60" height="30" as="geometry" />
        </mxCell>
        <mxCell id="7eaRc9s0AeY9biqjr4J9-18" value="Phone" style="ellipse;whiteSpace=wrap;html=1;strokeColor=#0F8B8D;fillColor=none;fontStyle=1;fontFamily=Times New Roman;rounded=1;labelBackgroundColor=none;fontColor=#143642;strokeWidth=2;" parent="1" vertex="1">
          <mxGeometry x="830" y="349" width="60" height="30" as="geometry" />
        </mxCell>
        <mxCell id="7eaRc9s0AeY9biqjr4J9-22" value="Gender" style="ellipse;whiteSpace=wrap;html=1;strokeColor=#0F8B8D;fillColor=none;fontStyle=1;fontFamily=Times New Roman;rounded=1;labelBackgroundColor=none;fontColor=#143642;strokeWidth=2;" parent="1" vertex="1">
          <mxGeometry x="786" y="323" width="60" height="30" as="geometry" />
        </mxCell>
        <mxCell id="7eaRc9s0AeY9biqjr4J9-27" value="" style="endArrow=none;html=1;rounded=1;entryX=0;entryY=0;entryDx=0;entryDy=0;exitX=0.5;exitY=1;exitDx=0;exitDy=0;fontSize=12;fontStyle=1;fontFamily=Times New Roman;labelBackgroundColor=none;strokeColor=#A8201A;fontColor=#143642;strokeWidth=2;" parent="1" source="7eaRc9s0AeY9biqjr4J9-2" target="7eaRc9s0AeY9biqjr4J9-1" edge="1">
          <mxGeometry relative="1" as="geometry">
            <mxPoint x="800" y="301" as="sourcePoint" />
            <mxPoint x="960" y="301" as="targetPoint" />
          </mxGeometry>
        </mxCell>
        <mxCell id="7eaRc9s0AeY9biqjr4J9-29" value="" style="endArrow=none;html=1;rounded=1;entryX=0.25;entryY=0;entryDx=0;entryDy=0;exitX=0.5;exitY=1;exitDx=0;exitDy=0;fontSize=12;fontStyle=1;fontFamily=Times New Roman;labelBackgroundColor=none;strokeColor=#A8201A;fontColor=#143642;strokeWidth=2;" parent="1" source="7eaRc9s0AeY9biqjr4J9-4" target="7eaRc9s0AeY9biqjr4J9-1" edge="1">
          <mxGeometry relative="1" as="geometry">
            <mxPoint x="820" y="201" as="sourcePoint" />
            <mxPoint x="860" y="261" as="targetPoint" />
          </mxGeometry>
        </mxCell>
        <mxCell id="7eaRc9s0AeY9biqjr4J9-30" value="" style="endArrow=none;html=1;rounded=1;entryX=0.5;entryY=0;entryDx=0;entryDy=0;exitX=0.5;exitY=1;exitDx=0;exitDy=0;fontSize=12;fontStyle=1;fontFamily=Times New Roman;labelBackgroundColor=none;strokeColor=#A8201A;fontColor=#143642;strokeWidth=2;" parent="1" source="7eaRc9s0AeY9biqjr4J9-6" target="7eaRc9s0AeY9biqjr4J9-1" edge="1">
          <mxGeometry relative="1" as="geometry">
            <mxPoint x="830" y="211" as="sourcePoint" />
            <mxPoint x="870" y="271" as="targetPoint" />
          </mxGeometry>
        </mxCell>
        <mxCell id="7eaRc9s0AeY9biqjr4J9-31" value="" style="endArrow=none;html=1;rounded=1;entryX=0.75;entryY=0;entryDx=0;entryDy=0;exitX=0.5;exitY=1;exitDx=0;exitDy=0;fontSize=12;fontStyle=1;fontFamily=Times New Roman;labelBackgroundColor=none;strokeColor=#A8201A;fontColor=#143642;strokeWidth=2;" parent="1" source="7eaRc9s0AeY9biqjr4J9-7" target="7eaRc9s0AeY9biqjr4J9-1" edge="1">
          <mxGeometry relative="1" as="geometry">
            <mxPoint x="840" y="221" as="sourcePoint" />
            <mxPoint x="880" y="281" as="targetPoint" />
          </mxGeometry>
        </mxCell>
        <mxCell id="7eaRc9s0AeY9biqjr4J9-32" value="" style="endArrow=none;html=1;rounded=1;entryX=1;entryY=0;entryDx=0;entryDy=0;exitX=0;exitY=1;exitDx=0;exitDy=0;fontSize=12;fontStyle=1;fontFamily=Times New Roman;labelBackgroundColor=none;strokeColor=#A8201A;fontColor=#143642;strokeWidth=2;" parent="1" source="7eaRc9s0AeY9biqjr4J9-10" target="7eaRc9s0AeY9biqjr4J9-1" edge="1">
          <mxGeometry relative="1" as="geometry">
            <mxPoint x="850" y="231" as="sourcePoint" />
            <mxPoint x="890" y="291" as="targetPoint" />
          </mxGeometry>
        </mxCell>
        <mxCell id="7eaRc9s0AeY9biqjr4J9-33" value="" style="endArrow=none;html=1;rounded=1;entryX=1;entryY=0.25;entryDx=0;entryDy=0;exitX=0;exitY=0.5;exitDx=0;exitDy=0;fontSize=12;fontStyle=1;fontFamily=Times New Roman;labelBackgroundColor=none;strokeColor=#A8201A;fontColor=#143642;strokeWidth=2;" parent="1" source="7eaRc9s0AeY9biqjr4J9-11" target="7eaRc9s0AeY9biqjr4J9-1" edge="1">
          <mxGeometry relative="1" as="geometry">
            <mxPoint x="860" y="241" as="sourcePoint" />
            <mxPoint x="900" y="301" as="targetPoint" />
          </mxGeometry>
        </mxCell>
        <mxCell id="7eaRc9s0AeY9biqjr4J9-34" value="" style="endArrow=none;html=1;rounded=1;entryX=1;entryY=0.367;entryDx=0;entryDy=0;exitX=0;exitY=0.5;exitDx=0;exitDy=0;fontSize=12;fontStyle=1;fontFamily=Times New Roman;labelBackgroundColor=none;strokeColor=#A8201A;fontColor=#143642;strokeWidth=2;entryPerimeter=0;" parent="1" source="7eaRc9s0AeY9biqjr4J9-12" target="7eaRc9s0AeY9biqjr4J9-1" edge="1">
          <mxGeometry relative="1" as="geometry">
            <mxPoint x="870" y="251" as="sourcePoint" />
            <mxPoint x="910" y="311" as="targetPoint" />
          </mxGeometry>
        </mxCell>
        <mxCell id="7eaRc9s0AeY9biqjr4J9-35" value="" style="endArrow=none;html=1;rounded=1;entryX=1;entryY=0.75;entryDx=0;entryDy=0;exitX=0;exitY=0.5;exitDx=0;exitDy=0;fontSize=12;fontStyle=1;fontFamily=Times New Roman;labelBackgroundColor=none;strokeColor=#A8201A;fontColor=#143642;strokeWidth=2;" parent="1" source="7eaRc9s0AeY9biqjr4J9-13" target="7eaRc9s0AeY9biqjr4J9-1" edge="1">
          <mxGeometry relative="1" as="geometry">
            <mxPoint x="880" y="261" as="sourcePoint" />
            <mxPoint x="920" y="321" as="targetPoint" />
          </mxGeometry>
        </mxCell>
        <mxCell id="7eaRc9s0AeY9biqjr4J9-36" value="" style="endArrow=none;html=1;rounded=1;entryX=1;entryY=1;entryDx=0;entryDy=0;exitX=0.5;exitY=0;exitDx=0;exitDy=0;fontSize=12;fontStyle=1;fontFamily=Times New Roman;labelBackgroundColor=none;strokeColor=#A8201A;fontColor=#143642;strokeWidth=2;" parent="1" source="7eaRc9s0AeY9biqjr4J9-17" target="7eaRc9s0AeY9biqjr4J9-1" edge="1">
          <mxGeometry relative="1" as="geometry">
            <mxPoint x="890" y="271" as="sourcePoint" />
            <mxPoint x="930" y="331" as="targetPoint" />
          </mxGeometry>
        </mxCell>
        <mxCell id="7eaRc9s0AeY9biqjr4J9-37" value="" style="endArrow=none;html=1;rounded=1;entryX=0.25;entryY=1;entryDx=0;entryDy=0;exitX=1;exitY=0;exitDx=0;exitDy=0;fontSize=12;fontStyle=1;fontFamily=Times New Roman;labelBackgroundColor=none;strokeColor=#A8201A;fontColor=#143642;strokeWidth=2;" parent="1" source="7eaRc9s0AeY9biqjr4J9-18" target="7eaRc9s0AeY9biqjr4J9-1" edge="1">
          <mxGeometry relative="1" as="geometry">
            <mxPoint x="900" y="281" as="sourcePoint" />
            <mxPoint x="940" y="341" as="targetPoint" />
          </mxGeometry>
        </mxCell>
        <mxCell id="7eaRc9s0AeY9biqjr4J9-38" value="" style="endArrow=none;html=1;rounded=1;entryX=0.5;entryY=0;entryDx=0;entryDy=0;exitX=0;exitY=1;exitDx=0;exitDy=0;fontSize=12;fontStyle=1;fontFamily=Times New Roman;labelBackgroundColor=none;strokeColor=#A8201A;fontColor=#143642;strokeWidth=2;" parent="1" source="7eaRc9s0AeY9biqjr4J9-1" target="7eaRc9s0AeY9biqjr4J9-22" edge="1">
          <mxGeometry relative="1" as="geometry">
            <mxPoint x="910" y="291" as="sourcePoint" />
            <mxPoint x="950" y="351" as="targetPoint" />
          </mxGeometry>
        </mxCell>
        <mxCell id="7eaRc9s0AeY9biqjr4J9-40" value="&lt;u&gt;Current-Job&lt;/u&gt;" style="ellipse;whiteSpace=wrap;html=1;strokeColor=#0F8B8D;fillColor=none;fontStyle=1;fontFamily=Times New Roman;rounded=1;labelBackgroundColor=none;fontColor=#143642;strokeWidth=2;" parent="1" vertex="1">
          <mxGeometry x="434" y="41" width="80" height="40" as="geometry" />
        </mxCell>
        <mxCell id="7eaRc9s0AeY9biqjr4J9-41" value="Company" style="ellipse;whiteSpace=wrap;html=1;strokeColor=#0F8B8D;fillColor=none;fontStyle=1;fontFamily=Times New Roman;rounded=1;labelBackgroundColor=none;fontColor=#143642;strokeWidth=2;" parent="1" vertex="1">
          <mxGeometry x="520" y="41" width="80" height="40" as="geometry" />
        </mxCell>
        <mxCell id="7eaRc9s0AeY9biqjr4J9-45" value="" style="endArrow=none;html=1;rounded=1;entryX=0.5;entryY=0;entryDx=0;entryDy=0;exitX=0.5;exitY=1;exitDx=0;exitDy=0;fontSize=12;fontStyle=1;fontFamily=Times New Roman;labelBackgroundColor=none;strokeColor=#A8201A;fontColor=#143642;strokeWidth=2;" parent="1" source="7eaRc9s0AeY9biqjr4J9-40" target="7eaRc9s0AeY9biqjr4J9-8" edge="1">
          <mxGeometry relative="1" as="geometry">
            <mxPoint x="425" y="96" as="sourcePoint" />
            <mxPoint x="455" y="151" as="targetPoint" />
          </mxGeometry>
        </mxCell>
        <mxCell id="7eaRc9s0AeY9biqjr4J9-46" value="" style="endArrow=none;html=1;rounded=1;entryX=1;entryY=0;entryDx=0;entryDy=0;exitX=0.5;exitY=1;exitDx=0;exitDy=0;fontSize=12;fontStyle=1;fontFamily=Times New Roman;labelBackgroundColor=none;strokeColor=#A8201A;fontColor=#143642;strokeWidth=2;" parent="1" source="7eaRc9s0AeY9biqjr4J9-41" target="7eaRc9s0AeY9biqjr4J9-8" edge="1">
          <mxGeometry relative="1" as="geometry">
            <mxPoint x="435" y="106" as="sourcePoint" />
            <mxPoint x="465" y="161" as="targetPoint" />
          </mxGeometry>
        </mxCell>
        <mxCell id="7eaRc9s0AeY9biqjr4J9-47" value="&lt;font&gt;Become&lt;/font&gt;" style="shape=rhombus;double=1;perimeter=rhombusPerimeter;whiteSpace=wrap;html=1;align=center;rounded=1;strokeColor=#0F8B8D;fillColor=none;fontStyle=1;fontFamily=Times New Roman;strokeWidth=2;shadow=0;labelBackgroundColor=none;fontColor=#143642;" parent="1" vertex="1">
          <mxGeometry x="632.5" y="171" width="65" height="70" as="geometry" />
        </mxCell>
        <mxCell id="7eaRc9s0AeY9biqjr4J9-51" value="" style="endArrow=none;html=1;rounded=1;shape=link;entryX=0;entryY=0.25;entryDx=0;entryDy=0;exitX=1;exitY=0.5;exitDx=0;exitDy=0;edgeStyle=orthogonalEdgeStyle;curved=1;labelBackgroundColor=none;strokeColor=#A8201A;fontColor=#143642;strokeWidth=2;" parent="1" source="7eaRc9s0AeY9biqjr4J9-53" target="7eaRc9s0AeY9biqjr4J9-1" edge="1">
          <mxGeometry relative="1" as="geometry">
            <mxPoint x="510" y="141" as="sourcePoint" />
            <mxPoint x="670" y="141" as="targetPoint" />
            <Array as="points">
              <mxPoint x="763" y="206" />
              <mxPoint x="807" y="206" />
              <mxPoint x="807" y="266" />
            </Array>
          </mxGeometry>
        </mxCell>
        <mxCell id="7eaRc9s0AeY9biqjr4J9-55" value="" style="endArrow=none;html=1;rounded=1;exitX=1;exitY=0.5;exitDx=0;exitDy=0;entryX=0;entryY=0.5;entryDx=0;entryDy=0;shape=link;edgeStyle=orthogonalEdgeStyle;curved=1;labelBackgroundColor=none;strokeColor=#A8201A;fontColor=#143642;strokeWidth=2;" parent="1" source="7eaRc9s0AeY9biqjr4J9-56" target="7eaRc9s0AeY9biqjr4J9-47" edge="1">
          <mxGeometry relative="1" as="geometry">
            <mxPoint x="510" y="141" as="sourcePoint" />
            <mxPoint x="670" y="141" as="targetPoint" />
          </mxGeometry>
        </mxCell>
        <mxCell id="7eaRc9s0AeY9biqjr4J9-57" value="&lt;span style=&quot;font-size: 14px;&quot;&gt;Freelance Job&lt;/span&gt;" style="shape=ext;margin=3;double=1;whiteSpace=wrap;html=1;align=center;rounded=1;fillColor=#FFE599;strokeColor=#0F8B8D;shadow=1;fontStyle=1;fontFamily=Times New Roman;strokeWidth=2;labelBackgroundColor=none;fontColor=#143642;" parent="1" vertex="1">
          <mxGeometry x="295" y="215" width="120" height="60" as="geometry" />
        </mxCell>
        <mxCell id="7eaRc9s0AeY9biqjr4J9-59" value="&lt;u&gt;Task-Desc&lt;/u&gt;" style="ellipse;whiteSpace=wrap;html=1;strokeColor=#0F8B8D;fillColor=none;fontStyle=1;fontFamily=Times New Roman;rounded=1;labelBackgroundColor=none;fontColor=#143642;strokeWidth=2;" parent="1" vertex="1">
          <mxGeometry x="260" y="135" width="80" height="40" as="geometry" />
        </mxCell>
        <mxCell id="7eaRc9s0AeY9biqjr4J9-60" value="Client-Name" style="ellipse;whiteSpace=wrap;html=1;strokeColor=#0F8B8D;fillColor=none;fontStyle=1;fontFamily=Times New Roman;rounded=1;labelBackgroundColor=none;fontColor=#143642;strokeWidth=2;" parent="1" vertex="1">
          <mxGeometry x="190" y="165" width="80" height="40" as="geometry" />
        </mxCell>
        <mxCell id="7eaRc9s0AeY9biqjr4J9-61" value="Platform" style="ellipse;whiteSpace=wrap;html=1;strokeColor=#0F8B8D;fillColor=none;fontStyle=1;fontFamily=Times New Roman;rounded=1;labelBackgroundColor=none;fontColor=#143642;strokeWidth=2;" parent="1" vertex="1">
          <mxGeometry x="290" y="300" width="80" height="40" as="geometry" />
        </mxCell>
        <mxCell id="7eaRc9s0AeY9biqjr4J9-62" value="Cost" style="ellipse;whiteSpace=wrap;html=1;strokeColor=#0F8B8D;fillColor=none;fontStyle=1;fontFamily=Times New Roman;rounded=1;labelBackgroundColor=none;fontColor=#143642;strokeWidth=2;" parent="1" vertex="1">
          <mxGeometry x="180" y="258" width="80" height="40" as="geometry" />
        </mxCell>
        <mxCell id="7eaRc9s0AeY9biqjr4J9-63" value="Status" style="ellipse;whiteSpace=wrap;html=1;strokeColor=#0F8B8D;fillColor=none;fontStyle=1;fontFamily=Times New Roman;rounded=1;labelBackgroundColor=none;fontColor=#143642;strokeWidth=2;" parent="1" vertex="1">
          <mxGeometry x="200" y="305" width="80" height="40" as="geometry" />
        </mxCell>
        <mxCell id="7eaRc9s0AeY9biqjr4J9-64" value="Date" style="ellipse;whiteSpace=wrap;html=1;strokeColor=#0F8B8D;fillColor=none;fontStyle=1;fontFamily=Times New Roman;rounded=1;labelBackgroundColor=none;fontColor=#143642;strokeWidth=2;" parent="1" vertex="1">
          <mxGeometry x="180" y="213" width="80" height="40" as="geometry" />
        </mxCell>
        <mxCell id="7eaRc9s0AeY9biqjr4J9-65" value="" style="endArrow=none;html=1;rounded=1;entryX=0.25;entryY=0;entryDx=0;entryDy=0;exitX=0.5;exitY=1;exitDx=0;exitDy=0;fontSize=12;fontStyle=1;fontFamily=Times New Roman;labelBackgroundColor=none;strokeColor=#A8201A;fontColor=#143642;strokeWidth=2;" parent="1" source="7eaRc9s0AeY9biqjr4J9-59" target="7eaRc9s0AeY9biqjr4J9-57" edge="1">
          <mxGeometry relative="1" as="geometry">
            <mxPoint x="425" y="96" as="sourcePoint" />
            <mxPoint x="455" y="151" as="targetPoint" />
          </mxGeometry>
        </mxCell>
        <mxCell id="7eaRc9s0AeY9biqjr4J9-66" value="" style="endArrow=none;html=1;rounded=1;entryX=0;entryY=0;entryDx=0;entryDy=0;exitX=1;exitY=1;exitDx=0;exitDy=0;fontSize=12;fontStyle=1;fontFamily=Times New Roman;labelBackgroundColor=none;strokeColor=#A8201A;fontColor=#143642;strokeWidth=2;" parent="1" source="7eaRc9s0AeY9biqjr4J9-60" target="7eaRc9s0AeY9biqjr4J9-57" edge="1">
          <mxGeometry relative="1" as="geometry">
            <mxPoint x="435" y="106" as="sourcePoint" />
            <mxPoint x="465" y="161" as="targetPoint" />
          </mxGeometry>
        </mxCell>
        <mxCell id="7eaRc9s0AeY9biqjr4J9-67" value="" style="endArrow=none;html=1;rounded=1;entryX=0;entryY=0.5;entryDx=0;entryDy=0;exitX=1;exitY=0.5;exitDx=0;exitDy=0;fontSize=12;fontStyle=1;fontFamily=Times New Roman;labelBackgroundColor=none;strokeColor=#A8201A;fontColor=#143642;strokeWidth=2;" parent="1" source="7eaRc9s0AeY9biqjr4J9-64" target="7eaRc9s0AeY9biqjr4J9-57" edge="1">
          <mxGeometry relative="1" as="geometry">
            <mxPoint x="445" y="116" as="sourcePoint" />
            <mxPoint x="475" y="171" as="targetPoint" />
          </mxGeometry>
        </mxCell>
        <mxCell id="7eaRc9s0AeY9biqjr4J9-68" value="" style="endArrow=none;html=1;rounded=1;entryX=0;entryY=1;entryDx=0;entryDy=0;exitX=1;exitY=0.5;exitDx=0;exitDy=0;fontSize=12;fontStyle=1;fontFamily=Times New Roman;labelBackgroundColor=none;strokeColor=#A8201A;fontColor=#143642;strokeWidth=2;" parent="1" source="7eaRc9s0AeY9biqjr4J9-62" target="7eaRc9s0AeY9biqjr4J9-57" edge="1">
          <mxGeometry relative="1" as="geometry">
            <mxPoint x="455" y="126" as="sourcePoint" />
            <mxPoint x="485" y="181" as="targetPoint" />
          </mxGeometry>
        </mxCell>
        <mxCell id="7eaRc9s0AeY9biqjr4J9-69" value="" style="endArrow=none;html=1;rounded=1;entryX=0.25;entryY=1;entryDx=0;entryDy=0;exitX=0.5;exitY=0;exitDx=0;exitDy=0;fontSize=12;fontStyle=1;fontFamily=Times New Roman;labelBackgroundColor=none;strokeColor=#A8201A;fontColor=#143642;strokeWidth=2;" parent="1" source="7eaRc9s0AeY9biqjr4J9-63" target="7eaRc9s0AeY9biqjr4J9-57" edge="1">
          <mxGeometry relative="1" as="geometry">
            <mxPoint x="465" y="136" as="sourcePoint" />
            <mxPoint x="495" y="191" as="targetPoint" />
          </mxGeometry>
        </mxCell>
        <mxCell id="7eaRc9s0AeY9biqjr4J9-70" value="" style="endArrow=none;html=1;rounded=1;entryX=0.75;entryY=1;entryDx=0;entryDy=0;exitX=0.5;exitY=0;exitDx=0;exitDy=0;fontSize=12;fontStyle=1;fontFamily=Times New Roman;labelBackgroundColor=none;strokeColor=#A8201A;fontColor=#143642;strokeWidth=2;" parent="1" source="7eaRc9s0AeY9biqjr4J9-61" target="7eaRc9s0AeY9biqjr4J9-57" edge="1">
          <mxGeometry relative="1" as="geometry">
            <mxPoint x="475" y="146" as="sourcePoint" />
            <mxPoint x="505" y="201" as="targetPoint" />
          </mxGeometry>
        </mxCell>
        <mxCell id="7eaRc9s0AeY9biqjr4J9-72" value="Apply" style="shape=rhombus;double=1;perimeter=rhombusPerimeter;whiteSpace=wrap;html=1;align=center;rounded=1;strokeColor=#0F8B8D;fillColor=none;fontStyle=1;fontFamily=Times New Roman;strokeWidth=2;labelBackgroundColor=none;fontColor=#143642;" parent="1" vertex="1">
          <mxGeometry x="600" y="229" width="65" height="70" as="geometry" />
        </mxCell>
        <mxCell id="7eaRc9s0AeY9biqjr4J9-73" value="" style="endArrow=none;html=1;rounded=1;shape=link;entryX=0;entryY=0.5;entryDx=0;entryDy=0;exitX=1;exitY=0.5;exitDx=0;exitDy=0;edgeStyle=orthogonalEdgeStyle;curved=1;labelBackgroundColor=none;strokeColor=#A8201A;fontColor=#143642;strokeWidth=2;" parent="1" source="7eaRc9s0AeY9biqjr4J9-77" target="7eaRc9s0AeY9biqjr4J9-1" edge="1">
          <mxGeometry relative="1" as="geometry">
            <mxPoint x="697.25" y="266" as="sourcePoint" />
            <mxPoint x="802.25" y="326" as="targetPoint" />
            <Array as="points">
              <mxPoint x="761" y="264" />
              <mxPoint x="761" y="281" />
            </Array>
          </mxGeometry>
        </mxCell>
        <mxCell id="7eaRc9s0AeY9biqjr4J9-74" value="" style="endArrow=none;html=1;rounded=1;shape=link;entryX=1;entryY=0.5;entryDx=0;entryDy=0;exitX=0;exitY=0.5;exitDx=0;exitDy=0;edgeStyle=orthogonalEdgeStyle;curved=1;labelBackgroundColor=none;strokeColor=#A8201A;fontColor=#143642;strokeWidth=2;" parent="1" source="7eaRc9s0AeY9biqjr4J9-75" target="7eaRc9s0AeY9biqjr4J9-57" edge="1">
          <mxGeometry relative="1" as="geometry">
            <mxPoint x="765" y="226" as="sourcePoint" />
            <mxPoint x="870" y="286" as="targetPoint" />
          </mxGeometry>
        </mxCell>
        <mxCell id="7eaRc9s0AeY9biqjr4J9-78" value="&lt;span style=&quot;font-size: 14px;&quot;&gt;Certificate&lt;/span&gt;" style="shape=ext;margin=3;double=1;whiteSpace=wrap;html=1;align=center;rounded=1;fillColor=#FFE599;strokeColor=#0F8B8D;shadow=1;fontStyle=1;fontFamily=Times New Roman;strokeWidth=2;labelBackgroundColor=none;fontColor=#143642;" parent="1" vertex="1">
          <mxGeometry x="145" y="356" width="120" height="60" as="geometry" />
        </mxCell>
        <mxCell id="7eaRc9s0AeY9biqjr4J9-79" value="&lt;u&gt;Verification_ID&lt;/u&gt;" style="ellipse;whiteSpace=wrap;html=1;strokeColor=#0F8B8D;fillColor=none;fontStyle=1;fontFamily=Times New Roman;rounded=1;labelBackgroundColor=none;fontColor=#143642;strokeWidth=2;" parent="1" vertex="1">
          <mxGeometry x="30" y="336" width="90" height="40" as="geometry" />
        </mxCell>
        <mxCell id="7eaRc9s0AeY9biqjr4J9-80" value="Certificate-Name" style="ellipse;whiteSpace=wrap;html=1;strokeColor=#0F8B8D;fillColor=none;fontStyle=1;fontFamily=Times New Roman;rounded=1;labelBackgroundColor=none;fontColor=#143642;strokeWidth=2;" parent="1" vertex="1">
          <mxGeometry x="30" y="386" width="90" height="40" as="geometry" />
        </mxCell>
        <mxCell id="7eaRc9s0AeY9biqjr4J9-81" value="Provider" style="ellipse;whiteSpace=wrap;html=1;strokeColor=#0F8B8D;fillColor=none;fontStyle=1;fontFamily=Times New Roman;rounded=1;labelBackgroundColor=none;fontColor=#143642;strokeWidth=2;" parent="1" vertex="1">
          <mxGeometry x="70" y="436" width="90" height="40" as="geometry" />
        </mxCell>
        <mxCell id="7eaRc9s0AeY9biqjr4J9-82" value="Date" style="ellipse;whiteSpace=wrap;html=1;strokeColor=#0F8B8D;fillColor=none;fontStyle=1;fontFamily=Times New Roman;rounded=1;labelBackgroundColor=none;fontColor=#143642;strokeWidth=2;" parent="1" vertex="1">
          <mxGeometry x="165" y="446" width="90" height="40" as="geometry" />
        </mxCell>
        <mxCell id="7eaRc9s0AeY9biqjr4J9-83" value="" style="endArrow=none;html=1;rounded=1;entryX=0;entryY=0.25;entryDx=0;entryDy=0;exitX=1;exitY=0.5;exitDx=0;exitDy=0;fontSize=12;fontStyle=1;fontFamily=Times New Roman;labelBackgroundColor=none;strokeColor=#A8201A;fontColor=#143642;strokeWidth=2;" parent="1" source="7eaRc9s0AeY9biqjr4J9-79" target="7eaRc9s0AeY9biqjr4J9-78" edge="1">
          <mxGeometry relative="1" as="geometry">
            <mxPoint x="370" y="166" as="sourcePoint" />
            <mxPoint x="395" y="206" as="targetPoint" />
          </mxGeometry>
        </mxCell>
        <mxCell id="7eaRc9s0AeY9biqjr4J9-84" value="" style="endArrow=none;html=1;rounded=1;entryX=0;entryY=0.75;entryDx=0;entryDy=0;exitX=1;exitY=0.5;exitDx=0;exitDy=0;fontSize=12;fontStyle=1;fontFamily=Times New Roman;labelBackgroundColor=none;strokeColor=#A8201A;fontColor=#143642;strokeWidth=2;" parent="1" source="7eaRc9s0AeY9biqjr4J9-80" target="7eaRc9s0AeY9biqjr4J9-78" edge="1">
          <mxGeometry relative="1" as="geometry">
            <mxPoint x="340" y="376" as="sourcePoint" />
            <mxPoint x="365" y="391" as="targetPoint" />
          </mxGeometry>
        </mxCell>
        <mxCell id="7eaRc9s0AeY9biqjr4J9-85" value="" style="endArrow=none;html=1;rounded=1;entryX=0;entryY=1;entryDx=0;entryDy=0;exitX=0.5;exitY=0;exitDx=0;exitDy=0;fontSize=12;fontStyle=1;fontFamily=Times New Roman;labelBackgroundColor=none;strokeColor=#A8201A;fontColor=#143642;strokeWidth=2;" parent="1" source="7eaRc9s0AeY9biqjr4J9-81" target="7eaRc9s0AeY9biqjr4J9-78" edge="1">
          <mxGeometry relative="1" as="geometry">
            <mxPoint x="350" y="386" as="sourcePoint" />
            <mxPoint x="375" y="401" as="targetPoint" />
          </mxGeometry>
        </mxCell>
        <mxCell id="7eaRc9s0AeY9biqjr4J9-86" value="" style="endArrow=none;html=1;rounded=1;entryX=0.5;entryY=1;entryDx=0;entryDy=0;exitX=0.5;exitY=0;exitDx=0;exitDy=0;fontSize=12;fontStyle=1;fontFamily=Times New Roman;labelBackgroundColor=none;strokeColor=#A8201A;fontColor=#143642;strokeWidth=2;" parent="1" source="7eaRc9s0AeY9biqjr4J9-82" target="7eaRc9s0AeY9biqjr4J9-78" edge="1">
          <mxGeometry relative="1" as="geometry">
            <mxPoint x="360" y="396" as="sourcePoint" />
            <mxPoint x="385" y="411" as="targetPoint" />
          </mxGeometry>
        </mxCell>
        <mxCell id="7eaRc9s0AeY9biqjr4J9-87" value="Take" style="shape=rhombus;double=1;perimeter=rhombusPerimeter;whiteSpace=wrap;html=1;align=center;rounded=1;strokeColor=#0F8B8D;fillColor=none;fontStyle=1;fontFamily=Times New Roman;strokeWidth=2;labelBackgroundColor=none;fontColor=#143642;" parent="1" vertex="1">
          <mxGeometry x="600" y="326" width="65" height="70" as="geometry" />
        </mxCell>
        <mxCell id="7eaRc9s0AeY9biqjr4J9-90" value="" style="endArrow=none;html=1;rounded=1;shape=link;entryX=0;entryY=0.75;entryDx=0;entryDy=0;exitX=1;exitY=0.5;exitDx=0;exitDy=0;edgeStyle=orthogonalEdgeStyle;curved=1;labelBackgroundColor=none;strokeColor=#A8201A;fontColor=#143642;strokeWidth=2;" parent="1" source="7eaRc9s0AeY9biqjr4J9-93" target="7eaRc9s0AeY9biqjr4J9-1" edge="1">
          <mxGeometry relative="1" as="geometry">
            <mxPoint x="675" y="274" as="sourcePoint" />
            <mxPoint x="860" y="291" as="targetPoint" />
          </mxGeometry>
        </mxCell>
        <mxCell id="7eaRc9s0AeY9biqjr4J9-91" value="" style="endArrow=none;html=1;rounded=1;shape=link;entryX=0;entryY=0.5;entryDx=0;entryDy=0;exitX=1;exitY=0.5;exitDx=0;exitDy=0;edgeStyle=orthogonalEdgeStyle;curved=1;labelBackgroundColor=none;strokeColor=#A8201A;fontColor=#143642;strokeWidth=2;" parent="1" source="7eaRc9s0AeY9biqjr4J9-92" target="7eaRc9s0AeY9biqjr4J9-87" edge="1">
          <mxGeometry relative="1" as="geometry">
            <mxPoint x="665" y="371" as="sourcePoint" />
            <mxPoint x="860" y="306" as="targetPoint" />
          </mxGeometry>
        </mxCell>
        <mxCell id="7eaRc9s0AeY9biqjr4J9-94" value="&lt;font style=&quot;font-size: 14px;&quot;&gt;&lt;span&gt;Track&lt;/span&gt;&lt;/font&gt;" style="rounded=1;whiteSpace=wrap;html=1;fillColor=#FFE599;strokeColor=#0F8B8D;shadow=1;fontStyle=1;fontFamily=Times New Roman;strokeWidth=2;labelBackgroundColor=none;fontColor=#143642;" parent="1" vertex="1">
          <mxGeometry x="1670" y="251" width="120" height="60" as="geometry" />
        </mxCell>
        <mxCell id="7eaRc9s0AeY9biqjr4J9-95" value="&lt;font style=&quot;font-size: 14px;&quot;&gt;&lt;span&gt;Intake&lt;/span&gt;&lt;/font&gt;" style="rounded=1;whiteSpace=wrap;html=1;fillColor=#FFE599;strokeColor=#0F8B8D;shadow=1;fontStyle=1;fontFamily=Times New Roman;strokeWidth=2;labelBackgroundColor=none;fontColor=#143642;" parent="1" vertex="1">
          <mxGeometry x="1230" y="119" width="120" height="60" as="geometry" />
        </mxCell>
        <mxCell id="7eaRc9s0AeY9biqjr4J9-96" value="&lt;font style=&quot;font-size: 14px;&quot;&gt;&lt;span&gt;Branch&lt;/span&gt;&lt;/font&gt;" style="rounded=1;whiteSpace=wrap;html=1;fillColor=#FFE599;strokeColor=#0F8B8D;shadow=1;fontStyle=1;fontFamily=Times New Roman;strokeWidth=2;labelBackgroundColor=none;fontColor=#143642;" parent="1" vertex="1">
          <mxGeometry x="1230" y="421" width="120" height="60" as="geometry" />
        </mxCell>
        <mxCell id="7eaRc9s0AeY9biqjr4J9-97" value="&lt;u&gt;Intake-Num&lt;/u&gt;" style="ellipse;whiteSpace=wrap;html=1;strokeColor=#0F8B8D;fillColor=none;fontStyle=1;fontFamily=Times New Roman;rounded=1;labelBackgroundColor=none;fontColor=#143642;strokeWidth=2;" parent="1" vertex="1">
          <mxGeometry x="1180" y="41" width="80" height="30" as="geometry" />
        </mxCell>
        <mxCell id="7eaRc9s0AeY9biqjr4J9-98" value="" style="endArrow=none;html=1;rounded=1;entryX=0.25;entryY=0;entryDx=0;entryDy=0;exitX=0.5;exitY=1;exitDx=0;exitDy=0;fontSize=12;fontStyle=1;fontFamily=Times New Roman;labelBackgroundColor=none;strokeColor=#A8201A;fontColor=#143642;strokeWidth=2;" parent="1" source="7eaRc9s0AeY9biqjr4J9-97" target="7eaRc9s0AeY9biqjr4J9-95" edge="1">
          <mxGeometry relative="1" as="geometry">
            <mxPoint x="990" y="191" as="sourcePoint" />
            <mxPoint x="950" y="261" as="targetPoint" />
          </mxGeometry>
        </mxCell>
        <mxCell id="7eaRc9s0AeY9biqjr4J9-99" value="Branch-Loc" style="ellipse;whiteSpace=wrap;html=1;strokeColor=#0F8B8D;fillColor=none;fontStyle=1;fontFamily=Times New Roman;rounded=1;labelBackgroundColor=none;fontColor=#143642;strokeWidth=2;" parent="1" vertex="1">
          <mxGeometry x="1188" y="351" width="80" height="30" as="geometry" />
        </mxCell>
        <mxCell id="7eaRc9s0AeY9biqjr4J9-100" value="" style="endArrow=none;html=1;rounded=1;entryX=0.25;entryY=0;entryDx=0;entryDy=0;exitX=0.5;exitY=1;exitDx=0;exitDy=0;fontSize=12;fontStyle=1;fontFamily=Times New Roman;labelBackgroundColor=none;strokeColor=#A8201A;fontColor=#143642;strokeWidth=2;" parent="1" source="7eaRc9s0AeY9biqjr4J9-99" target="7eaRc9s0AeY9biqjr4J9-96" edge="1">
          <mxGeometry relative="1" as="geometry">
            <mxPoint x="1230" y="81" as="sourcePoint" />
            <mxPoint x="1270" y="129" as="targetPoint" />
          </mxGeometry>
        </mxCell>
        <mxCell id="7eaRc9s0AeY9biqjr4J9-101" value="Enroll" style="shape=rhombus;perimeter=rhombusPerimeter;whiteSpace=wrap;html=1;align=center;strokeColor=#0F8B8D;strokeWidth=2;fillColor=none;fontFamily=Times New Roman;rounded=1;fontStyle=1;shadow=0;labelBackgroundColor=none;fontColor=#143642;" parent="1" vertex="1">
          <mxGeometry x="1257.5" y="246" width="65" height="70" as="geometry" />
        </mxCell>
        <mxCell id="7eaRc9s0AeY9biqjr4J9-102" value="Track-Name" style="ellipse;whiteSpace=wrap;html=1;strokeColor=#0F8B8D;fillColor=none;fontStyle=1;fontFamily=Times New Roman;rounded=1;labelBackgroundColor=none;fontColor=#143642;strokeWidth=2;" parent="1" vertex="1">
          <mxGeometry x="1720" y="169" width="80" height="30" as="geometry" />
        </mxCell>
        <mxCell id="7eaRc9s0AeY9biqjr4J9-103" value="" style="endArrow=none;html=1;rounded=1;entryX=0.75;entryY=0;entryDx=0;entryDy=0;exitX=0.5;exitY=1;exitDx=0;exitDy=0;fontSize=12;fontStyle=1;fontFamily=Times New Roman;labelBackgroundColor=none;strokeColor=#A8201A;fontColor=#143642;strokeWidth=2;" parent="1" source="7eaRc9s0AeY9biqjr4J9-102" target="7eaRc9s0AeY9biqjr4J9-94" edge="1">
          <mxGeometry relative="1" as="geometry">
            <mxPoint x="1372" y="407" as="sourcePoint" />
            <mxPoint x="1330" y="431" as="targetPoint" />
          </mxGeometry>
        </mxCell>
        <mxCell id="7eaRc9s0AeY9biqjr4J9-104" value="" style="endArrow=none;html=1;rounded=1;shape=link;entryX=1;entryY=0.5;entryDx=0;entryDy=0;exitX=0;exitY=0.5;exitDx=0;exitDy=0;edgeStyle=orthogonalEdgeStyle;curved=1;labelBackgroundColor=none;strokeColor=#A8201A;fontColor=#143642;strokeWidth=2;" parent="1" source="7eaRc9s0AeY9biqjr4J9-108" target="7eaRc9s0AeY9biqjr4J9-1" edge="1">
          <mxGeometry relative="1" as="geometry">
            <mxPoint x="755" y="216" as="sourcePoint" />
            <mxPoint x="860" y="276" as="targetPoint" />
          </mxGeometry>
        </mxCell>
        <mxCell id="7eaRc9s0AeY9biqjr4J9-105" value="" style="endArrow=none;html=1;rounded=1;shape=link;entryX=0;entryY=0.5;entryDx=0;entryDy=0;exitX=1;exitY=0.5;exitDx=0;exitDy=0;edgeStyle=orthogonalEdgeStyle;curved=1;labelBackgroundColor=none;strokeColor=#A8201A;fontColor=#143642;strokeWidth=2;" parent="1" source="7eaRc9s0AeY9biqjr4J9-118" target="7eaRc9s0AeY9biqjr4J9-94" edge="1">
          <mxGeometry relative="1" as="geometry">
            <mxPoint x="1268" y="291" as="sourcePoint" />
            <mxPoint x="980" y="291" as="targetPoint" />
          </mxGeometry>
        </mxCell>
        <mxCell id="7eaRc9s0AeY9biqjr4J9-106" value="" style="endArrow=none;html=1;rounded=1;shape=link;entryX=0.5;entryY=0;entryDx=0;entryDy=0;exitX=0.5;exitY=1;exitDx=0;exitDy=0;edgeStyle=orthogonalEdgeStyle;curved=1;labelBackgroundColor=none;strokeColor=#A8201A;fontColor=#143642;strokeWidth=2;" parent="1" source="7eaRc9s0AeY9biqjr4J9-120" target="7eaRc9s0AeY9biqjr4J9-96" edge="1">
          <mxGeometry relative="1" as="geometry">
            <mxPoint x="1278" y="301" as="sourcePoint" />
            <mxPoint x="990" y="301" as="targetPoint" />
          </mxGeometry>
        </mxCell>
        <mxCell id="7eaRc9s0AeY9biqjr4J9-107" value="" style="endArrow=none;html=1;rounded=1;shape=link;entryX=0.5;entryY=1;entryDx=0;entryDy=0;edgeStyle=orthogonalEdgeStyle;curved=1;labelBackgroundColor=none;strokeColor=#A8201A;fontColor=#143642;strokeWidth=2;" parent="1" source="7eaRc9s0AeY9biqjr4J9-116" target="7eaRc9s0AeY9biqjr4J9-95" edge="1">
          <mxGeometry relative="1" as="geometry">
            <mxPoint x="1290" y="251" as="sourcePoint" />
            <mxPoint x="1300" y="431" as="targetPoint" />
          </mxGeometry>
        </mxCell>
        <mxCell id="7eaRc9s0AeY9biqjr4J9-117" value="" style="endArrow=none;html=1;rounded=1;shape=link;entryX=0.5;entryY=1;entryDx=0;entryDy=0;edgeStyle=orthogonalEdgeStyle;curved=1;labelBackgroundColor=none;strokeColor=#A8201A;fontColor=#143642;strokeWidth=2;" parent="1" source="7eaRc9s0AeY9biqjr4J9-101" target="7eaRc9s0AeY9biqjr4J9-116" edge="1">
          <mxGeometry relative="1" as="geometry">
            <mxPoint x="1290" y="246" as="sourcePoint" />
            <mxPoint x="1290" y="179" as="targetPoint" />
          </mxGeometry>
        </mxCell>
        <mxCell id="7eaRc9s0AeY9biqjr4J9-116" value="&lt;font style=&quot;font-size: 14px;&quot; face=&quot;Times New Roman&quot;&gt;&lt;b&gt;M&lt;/b&gt;&lt;/font&gt;" style="text;html=1;align=center;verticalAlign=middle;resizable=0;points=[];autosize=1;strokeColor=none;fillColor=none;rounded=1;labelBackgroundColor=none;fontColor=#143642;strokeWidth=2;" parent="1" vertex="1">
          <mxGeometry x="1270" y="209" width="40" height="30" as="geometry" />
        </mxCell>
        <mxCell id="7eaRc9s0AeY9biqjr4J9-119" value="" style="endArrow=none;html=1;rounded=1;shape=link;entryX=0;entryY=0.5;entryDx=0;entryDy=0;exitX=1;exitY=0.5;exitDx=0;exitDy=0;edgeStyle=orthogonalEdgeStyle;curved=1;labelBackgroundColor=none;strokeColor=#A8201A;fontColor=#143642;strokeWidth=2;" parent="1" source="7eaRc9s0AeY9biqjr4J9-101" target="7eaRc9s0AeY9biqjr4J9-118" edge="1">
          <mxGeometry relative="1" as="geometry">
            <mxPoint x="1323" y="281" as="sourcePoint" />
            <mxPoint x="1670" y="281" as="targetPoint" />
          </mxGeometry>
        </mxCell>
        <mxCell id="7eaRc9s0AeY9biqjr4J9-118" value="&lt;font style=&quot;font-size: 14px;&quot; face=&quot;Times New Roman&quot;&gt;&lt;b&gt;M&lt;/b&gt;&lt;/font&gt;" style="text;html=1;align=center;verticalAlign=middle;resizable=0;points=[];autosize=1;strokeColor=none;fillColor=none;rounded=1;labelBackgroundColor=none;fontColor=#143642;strokeWidth=2;" parent="1" vertex="1">
          <mxGeometry x="1333" y="266" width="40" height="30" as="geometry" />
        </mxCell>
        <mxCell id="7eaRc9s0AeY9biqjr4J9-121" value="" style="endArrow=none;html=1;rounded=1;shape=link;entryX=0.5;entryY=0;entryDx=0;entryDy=0;exitX=0.5;exitY=1;exitDx=0;exitDy=0;edgeStyle=orthogonalEdgeStyle;curved=1;labelBackgroundColor=none;strokeColor=#A8201A;fontColor=#143642;strokeWidth=2;" parent="1" source="7eaRc9s0AeY9biqjr4J9-101" target="7eaRc9s0AeY9biqjr4J9-120" edge="1">
          <mxGeometry relative="1" as="geometry">
            <mxPoint x="1290" y="316" as="sourcePoint" />
            <mxPoint x="1290" y="421" as="targetPoint" />
          </mxGeometry>
        </mxCell>
        <mxCell id="7eaRc9s0AeY9biqjr4J9-120" value="&lt;font style=&quot;font-size: 14px;&quot; face=&quot;Times New Roman&quot;&gt;&lt;b&gt;M&lt;/b&gt;&lt;/font&gt;" style="text;html=1;align=center;verticalAlign=middle;resizable=0;points=[];autosize=1;strokeColor=none;fillColor=none;rounded=1;labelBackgroundColor=none;fontColor=#143642;strokeWidth=2;" parent="1" vertex="1">
          <mxGeometry x="1270" y="326" width="40" height="30" as="geometry" />
        </mxCell>
        <mxCell id="7eaRc9s0AeY9biqjr4J9-122" value="" style="endArrow=none;html=1;rounded=1;shape=link;entryX=1;entryY=0.5;entryDx=0;entryDy=0;exitX=0;exitY=0.5;exitDx=0;exitDy=0;edgeStyle=orthogonalEdgeStyle;curved=1;labelBackgroundColor=none;strokeColor=#A8201A;fontColor=#143642;strokeWidth=2;" parent="1" source="7eaRc9s0AeY9biqjr4J9-101" target="7eaRc9s0AeY9biqjr4J9-108" edge="1">
          <mxGeometry relative="1" as="geometry">
            <mxPoint x="1258" y="281" as="sourcePoint" />
            <mxPoint x="970" y="281" as="targetPoint" />
          </mxGeometry>
        </mxCell>
        <mxCell id="7eaRc9s0AeY9biqjr4J9-108" value="&lt;font style=&quot;font-size: 14px;&quot; face=&quot;Times New Roman&quot;&gt;&lt;b&gt;M&lt;/b&gt;&lt;/font&gt;" style="text;html=1;align=center;verticalAlign=middle;resizable=0;points=[];autosize=1;strokeColor=none;fillColor=none;rounded=1;labelBackgroundColor=none;fontColor=#143642;strokeWidth=2;" parent="1" vertex="1">
          <mxGeometry x="1208" y="266" width="40" height="30" as="geometry" />
        </mxCell>
        <mxCell id="7eaRc9s0AeY9biqjr4J9-123" value="&lt;font style=&quot;font-size: 14px;&quot;&gt;&lt;span&gt;Instructor&lt;/span&gt;&lt;/font&gt;" style="rounded=1;whiteSpace=wrap;html=1;fillColor=#FFE599;strokeColor=#0F8B8D;shadow=1;fontStyle=1;fontFamily=Times New Roman;strokeWidth=2;labelBackgroundColor=none;fontColor=#143642;" parent="1" vertex="1">
          <mxGeometry x="1670" y="682" width="120" height="60" as="geometry" />
        </mxCell>
        <mxCell id="7eaRc9s0AeY9biqjr4J9-124" value="Work on" style="shape=rhombus;perimeter=rhombusPerimeter;whiteSpace=wrap;html=1;align=center;strokeColor=#0F8B8D;strokeWidth=2;fillColor=none;fontFamily=Times New Roman;rounded=1;fontStyle=1;shadow=0;labelBackgroundColor=none;fontColor=#143642;" parent="1" vertex="1">
          <mxGeometry x="1540" y="416" width="65" height="70" as="geometry" />
        </mxCell>
        <mxCell id="7eaRc9s0AeY9biqjr4J9-125" value="" style="endArrow=none;html=1;rounded=1;shape=link;entryX=0;entryY=0.5;entryDx=0;entryDy=0;exitX=1;exitY=0.5;exitDx=0;exitDy=0;edgeStyle=orthogonalEdgeStyle;curved=1;labelBackgroundColor=none;strokeColor=#A8201A;fontColor=#143642;strokeWidth=2;" parent="1" source="7eaRc9s0AeY9biqjr4J9-150" target="7eaRc9s0AeY9biqjr4J9-124" edge="1">
          <mxGeometry relative="1" as="geometry">
            <mxPoint x="1373" y="431" as="sourcePoint" />
            <mxPoint x="1670" y="431" as="targetPoint" />
          </mxGeometry>
        </mxCell>
        <mxCell id="7eaRc9s0AeY9biqjr4J9-126" value="" style="endArrow=none;html=1;rounded=1;entryX=0.25;entryY=0;entryDx=0;entryDy=0;exitX=1;exitY=0.5;exitDx=0;exitDy=0;edgeStyle=orthogonalEdgeStyle;labelBackgroundColor=none;strokeColor=#A8201A;fontColor=#143642;strokeWidth=2;" parent="1" source="7eaRc9s0AeY9biqjr4J9-148" target="7eaRc9s0AeY9biqjr4J9-123" edge="1">
          <mxGeometry relative="1" as="geometry">
            <mxPoint x="1393" y="301" as="sourcePoint" />
            <mxPoint x="1690" y="301" as="targetPoint" />
          </mxGeometry>
        </mxCell>
        <mxCell id="7eaRc9s0AeY9biqjr4J9-127" value="Manage" style="shape=rhombus;perimeter=rhombusPerimeter;whiteSpace=wrap;html=1;align=center;strokeColor=#0F8B8D;strokeWidth=2;fillColor=none;fontFamily=Times New Roman;rounded=1;fontStyle=1;shadow=0;labelBackgroundColor=none;fontColor=#143642;" parent="1" vertex="1">
          <mxGeometry x="1750" y="416" width="65" height="70" as="geometry" />
        </mxCell>
        <mxCell id="7eaRc9s0AeY9biqjr4J9-128" value="" style="endArrow=none;html=1;rounded=1;entryX=0.75;entryY=0;entryDx=0;entryDy=0;exitX=0.5;exitY=1;exitDx=0;exitDy=0;edgeStyle=orthogonalEdgeStyle;labelBackgroundColor=none;strokeColor=#A8201A;fontColor=#143642;strokeWidth=2;" parent="1" source="7eaRc9s0AeY9biqjr4J9-132" target="7eaRc9s0AeY9biqjr4J9-123" edge="1">
          <mxGeometry relative="1" as="geometry">
            <mxPoint x="1615" y="461" as="sourcePoint" />
            <mxPoint x="1710" y="661" as="targetPoint" />
          </mxGeometry>
        </mxCell>
        <mxCell id="7eaRc9s0AeY9biqjr4J9-129" value="" style="endArrow=none;html=1;rounded=1;shape=link;entryX=0.5;entryY=0;entryDx=0;entryDy=0;exitX=0.5;exitY=1;exitDx=0;exitDy=0;edgeStyle=orthogonalEdgeStyle;curved=1;labelBackgroundColor=none;strokeColor=#A8201A;fontColor=#143642;strokeWidth=2;" parent="1" source="7eaRc9s0AeY9biqjr4J9-135" target="7eaRc9s0AeY9biqjr4J9-127" edge="1">
          <mxGeometry relative="1" as="geometry">
            <mxPoint x="1360" y="461" as="sourcePoint" />
            <mxPoint x="1550" y="461" as="targetPoint" />
          </mxGeometry>
        </mxCell>
        <mxCell id="7eaRc9s0AeY9biqjr4J9-130" value="Hiring-Date" style="ellipse;whiteSpace=wrap;html=1;strokeColor=#0F8B8D;fillColor=none;fontStyle=1;fontFamily=Times New Roman;rounded=1;labelBackgroundColor=none;fontColor=#143642;strokeWidth=2;" parent="1" vertex="1">
          <mxGeometry x="1815" y="396" width="80" height="30" as="geometry" />
        </mxCell>
        <mxCell id="7eaRc9s0AeY9biqjr4J9-131" value="" style="endArrow=none;html=1;rounded=1;entryX=1;entryY=0.5;entryDx=0;entryDy=0;exitX=0.5;exitY=1;exitDx=0;exitDy=0;fontSize=12;fontStyle=1;fontFamily=Times New Roman;labelBackgroundColor=none;strokeColor=#A8201A;fontColor=#143642;strokeWidth=2;" parent="1" source="7eaRc9s0AeY9biqjr4J9-130" target="7eaRc9s0AeY9biqjr4J9-127" edge="1">
          <mxGeometry relative="1" as="geometry">
            <mxPoint x="1372" y="407" as="sourcePoint" />
            <mxPoint x="1330" y="431" as="targetPoint" />
          </mxGeometry>
        </mxCell>
        <mxCell id="7eaRc9s0AeY9biqjr4J9-134" value="" style="endArrow=none;html=1;rounded=1;entryX=0.517;entryY=0.1;entryDx=0;entryDy=0;exitX=0.5;exitY=1;exitDx=0;exitDy=0;edgeStyle=orthogonalEdgeStyle;entryPerimeter=0;labelBackgroundColor=none;strokeColor=#A8201A;fontColor=#143642;strokeWidth=2;" parent="1" source="7eaRc9s0AeY9biqjr4J9-127" target="7eaRc9s0AeY9biqjr4J9-132" edge="1">
          <mxGeometry relative="1" as="geometry">
            <mxPoint x="1783" y="486" as="sourcePoint" />
            <mxPoint x="1760" y="651" as="targetPoint" />
          </mxGeometry>
        </mxCell>
        <mxCell id="7eaRc9s0AeY9biqjr4J9-132" value="&lt;font style=&quot;font-size: 14px;&quot; face=&quot;Times New Roman&quot;&gt;&lt;b&gt;1&lt;/b&gt;&lt;/font&gt;" style="text;html=1;align=center;verticalAlign=middle;resizable=0;points=[];autosize=1;strokeColor=none;fillColor=none;rounded=1;labelBackgroundColor=none;fontColor=#143642;strokeWidth=2;" parent="1" vertex="1">
          <mxGeometry x="1767.5" y="502" width="30" height="30" as="geometry" />
        </mxCell>
        <mxCell id="7eaRc9s0AeY9biqjr4J9-136" value="" style="endArrow=none;html=1;rounded=1;shape=link;entryX=0.5;entryY=0;entryDx=0;entryDy=0;exitX=0.5;exitY=1;exitDx=0;exitDy=0;edgeStyle=orthogonalEdgeStyle;curved=1;labelBackgroundColor=none;strokeColor=#A8201A;fontColor=#143642;strokeWidth=2;" parent="1" source="7eaRc9s0AeY9biqjr4J9-94" target="7eaRc9s0AeY9biqjr4J9-135" edge="1">
          <mxGeometry relative="1" as="geometry">
            <mxPoint x="1730" y="311" as="sourcePoint" />
            <mxPoint x="1783" y="416" as="targetPoint" />
          </mxGeometry>
        </mxCell>
        <mxCell id="7eaRc9s0AeY9biqjr4J9-135" value="&lt;font style=&quot;font-size: 14px;&quot; face=&quot;Times New Roman&quot;&gt;&lt;b&gt;1&lt;/b&gt;&lt;/font&gt;" style="text;html=1;align=center;verticalAlign=middle;resizable=0;points=[];autosize=1;strokeColor=none;fillColor=none;rounded=1;labelBackgroundColor=none;fontColor=#143642;strokeWidth=2;" parent="1" vertex="1">
          <mxGeometry x="1767.5" y="376" width="30" height="30" as="geometry" />
        </mxCell>
        <mxCell id="7eaRc9s0AeY9biqjr4J9-137" value="Include" style="shape=rhombus;perimeter=rhombusPerimeter;whiteSpace=wrap;html=1;align=center;strokeColor=#0F8B8D;strokeWidth=2;fillColor=none;fontFamily=Times New Roman;rounded=1;fontStyle=1;shadow=0;labelBackgroundColor=none;fontColor=#143642;" parent="1" vertex="1">
          <mxGeometry x="1475" y="325" width="65" height="70" as="geometry" />
        </mxCell>
        <mxCell id="7eaRc9s0AeY9biqjr4J9-138" value="" style="endArrow=none;html=1;rounded=1;shape=link;entryX=0;entryY=0.5;entryDx=0;entryDy=0;edgeStyle=orthogonalEdgeStyle;curved=1;labelBackgroundColor=none;strokeColor=#A8201A;fontColor=#143642;strokeWidth=2;" parent="1" source="7eaRc9s0AeY9biqjr4J9-140" target="7eaRc9s0AeY9biqjr4J9-137" edge="1">
          <mxGeometry relative="1" as="geometry">
            <mxPoint x="1359" y="310" as="sourcePoint" />
            <mxPoint x="1656" y="310" as="targetPoint" />
          </mxGeometry>
        </mxCell>
        <mxCell id="7eaRc9s0AeY9biqjr4J9-139" value="" style="endArrow=none;html=1;rounded=1;shape=link;exitX=1;exitY=0.5;exitDx=0;exitDy=0;edgeStyle=orthogonalEdgeStyle;curved=1;entryX=0;entryY=0.75;entryDx=0;entryDy=0;labelBackgroundColor=none;strokeColor=#A8201A;fontColor=#143642;strokeWidth=2;" parent="1" source="7eaRc9s0AeY9biqjr4J9-146" target="7eaRc9s0AeY9biqjr4J9-94" edge="1">
          <mxGeometry relative="1" as="geometry">
            <mxPoint x="1393" y="301" as="sourcePoint" />
            <mxPoint x="1670" y="301" as="targetPoint" />
          </mxGeometry>
        </mxCell>
        <mxCell id="7eaRc9s0AeY9biqjr4J9-145" value="" style="endArrow=none;html=1;rounded=1;shape=link;entryX=0;entryY=0.5;entryDx=0;entryDy=0;exitX=1;exitY=0.25;exitDx=0;exitDy=0;edgeStyle=orthogonalEdgeStyle;curved=1;labelBackgroundColor=none;strokeColor=#A8201A;fontColor=#143642;strokeWidth=2;" parent="1" source="7eaRc9s0AeY9biqjr4J9-96" target="7eaRc9s0AeY9biqjr4J9-140" edge="1">
          <mxGeometry relative="1" as="geometry">
            <mxPoint x="1350" y="436" as="sourcePoint" />
            <mxPoint x="1475" y="360" as="targetPoint" />
          </mxGeometry>
        </mxCell>
        <mxCell id="7eaRc9s0AeY9biqjr4J9-140" value="&lt;font style=&quot;font-size: 14px;&quot; face=&quot;Times New Roman&quot;&gt;&lt;b&gt;M&lt;/b&gt;&lt;/font&gt;" style="text;html=1;align=center;verticalAlign=middle;resizable=0;points=[];autosize=1;strokeColor=none;fillColor=none;rounded=1;labelBackgroundColor=none;fontColor=#143642;strokeWidth=2;" parent="1" vertex="1">
          <mxGeometry x="1420" y="345" width="40" height="30" as="geometry" />
        </mxCell>
        <mxCell id="7eaRc9s0AeY9biqjr4J9-147" value="" style="endArrow=none;html=1;rounded=1;shape=link;exitX=1;exitY=0.5;exitDx=0;exitDy=0;edgeStyle=orthogonalEdgeStyle;curved=1;labelBackgroundColor=none;strokeColor=#A8201A;fontColor=#143642;strokeWidth=2;" parent="1" source="7eaRc9s0AeY9biqjr4J9-137" target="7eaRc9s0AeY9biqjr4J9-146" edge="1">
          <mxGeometry relative="1" as="geometry">
            <mxPoint x="1540" y="360" as="sourcePoint" />
            <mxPoint x="1670" y="296" as="targetPoint" />
          </mxGeometry>
        </mxCell>
        <mxCell id="7eaRc9s0AeY9biqjr4J9-146" value="&lt;font style=&quot;font-size: 14px;&quot; face=&quot;Times New Roman&quot;&gt;&lt;b&gt;M&lt;/b&gt;&lt;/font&gt;" style="text;html=1;align=center;verticalAlign=middle;resizable=0;points=[];autosize=1;strokeColor=none;fillColor=none;rounded=1;labelBackgroundColor=none;fontColor=#143642;strokeWidth=2;" parent="1" vertex="1">
          <mxGeometry x="1551" y="345" width="40" height="30" as="geometry" />
        </mxCell>
        <mxCell id="7eaRc9s0AeY9biqjr4J9-149" value="" style="endArrow=none;html=1;rounded=1;entryX=0.075;entryY=0.5;entryDx=0;entryDy=0;exitX=1;exitY=0.5;exitDx=0;exitDy=0;edgeStyle=orthogonalEdgeStyle;entryPerimeter=0;labelBackgroundColor=none;strokeColor=#A8201A;fontColor=#143642;strokeWidth=2;" parent="1" source="7eaRc9s0AeY9biqjr4J9-124" target="7eaRc9s0AeY9biqjr4J9-148" edge="1">
          <mxGeometry relative="1" as="geometry">
            <mxPoint x="1605" y="451" as="sourcePoint" />
            <mxPoint x="1700" y="651" as="targetPoint" />
          </mxGeometry>
        </mxCell>
        <mxCell id="7eaRc9s0AeY9biqjr4J9-148" value="&lt;font style=&quot;font-size: 14px;&quot; face=&quot;Times New Roman&quot;&gt;&lt;b&gt;M&lt;/b&gt;&lt;/font&gt;" style="text;html=1;align=center;verticalAlign=middle;resizable=0;points=[];autosize=1;strokeColor=none;fillColor=none;rounded=1;labelBackgroundColor=none;fontColor=#143642;strokeWidth=2;" parent="1" vertex="1">
          <mxGeometry x="1618" y="436" width="40" height="30" as="geometry" />
        </mxCell>
        <mxCell id="7eaRc9s0AeY9biqjr4J9-151" value="" style="endArrow=none;html=1;rounded=1;shape=link;entryX=0;entryY=0.5;entryDx=0;entryDy=0;exitX=1;exitY=0.5;exitDx=0;exitDy=0;edgeStyle=orthogonalEdgeStyle;curved=1;labelBackgroundColor=none;strokeColor=#A8201A;fontColor=#143642;strokeWidth=2;" parent="1" source="7eaRc9s0AeY9biqjr4J9-96" target="7eaRc9s0AeY9biqjr4J9-150" edge="1">
          <mxGeometry relative="1" as="geometry">
            <mxPoint x="1350" y="451" as="sourcePoint" />
            <mxPoint x="1540" y="451" as="targetPoint" />
          </mxGeometry>
        </mxCell>
        <mxCell id="7eaRc9s0AeY9biqjr4J9-150" value="&lt;font style=&quot;font-size: 14px;&quot; face=&quot;Times New Roman&quot;&gt;&lt;b&gt;1&lt;/b&gt;&lt;/font&gt;" style="text;html=1;align=center;verticalAlign=middle;resizable=0;points=[];autosize=1;strokeColor=none;fillColor=none;rounded=1;labelBackgroundColor=none;fontColor=#143642;strokeWidth=2;" parent="1" vertex="1">
          <mxGeometry x="1496" y="436" width="30" height="30" as="geometry" />
        </mxCell>
        <mxCell id="7eaRc9s0AeY9biqjr4J9-153" value="&lt;u&gt;Ins-SSN&lt;/u&gt;" style="ellipse;whiteSpace=wrap;html=1;strokeColor=#0F8B8D;fillColor=none;fontStyle=1;fontFamily=Times New Roman;rounded=1;labelBackgroundColor=none;fontColor=#143642;strokeWidth=2;" parent="1" vertex="1">
          <mxGeometry x="1780" y="601" width="70" height="30" as="geometry" />
        </mxCell>
        <mxCell id="7eaRc9s0AeY9biqjr4J9-154" value="Fname" style="ellipse;whiteSpace=wrap;html=1;strokeColor=#0F8B8D;fillColor=none;fontStyle=1;fontFamily=Times New Roman;rounded=1;labelBackgroundColor=none;fontColor=#143642;strokeWidth=2;" parent="1" vertex="1">
          <mxGeometry x="1831" y="629" width="65" height="30" as="geometry" />
        </mxCell>
        <mxCell id="7eaRc9s0AeY9biqjr4J9-155" value="Lname" style="ellipse;whiteSpace=wrap;html=1;strokeColor=#0F8B8D;fillColor=none;fontStyle=1;fontFamily=Times New Roman;rounded=1;labelBackgroundColor=none;fontColor=#143642;strokeWidth=2;" parent="1" vertex="1">
          <mxGeometry x="1858" y="662" width="65" height="30" as="geometry" />
        </mxCell>
        <mxCell id="7eaRc9s0AeY9biqjr4J9-156" value="Age" style="ellipse;whiteSpace=wrap;html=1;strokeColor=#0F8B8D;fillColor=none;fontStyle=1;fontFamily=Times New Roman;rounded=1;labelBackgroundColor=none;fontColor=#143642;strokeWidth=2;" parent="1" vertex="1">
          <mxGeometry x="1869" y="696" width="65" height="30" as="geometry" />
        </mxCell>
        <mxCell id="7eaRc9s0AeY9biqjr4J9-157" value="Gender" style="ellipse;whiteSpace=wrap;html=1;strokeColor=#0F8B8D;fillColor=none;fontStyle=1;fontFamily=Times New Roman;rounded=1;labelBackgroundColor=none;fontColor=#143642;strokeWidth=2;" parent="1" vertex="1">
          <mxGeometry x="1876" y="731" width="65" height="30" as="geometry" />
        </mxCell>
        <mxCell id="7eaRc9s0AeY9biqjr4J9-158" value="Jop-Tittle" style="ellipse;whiteSpace=wrap;html=1;strokeColor=#0F8B8D;fillColor=none;fontStyle=1;fontFamily=Times New Roman;rounded=1;labelBackgroundColor=none;fontColor=#143642;strokeWidth=2;" parent="1" vertex="1">
          <mxGeometry x="1861" y="765" width="65" height="30" as="geometry" />
        </mxCell>
        <mxCell id="7eaRc9s0AeY9biqjr4J9-160" value="Phone" style="ellipse;whiteSpace=wrap;html=1;strokeColor=#0F8B8D;fillColor=none;fontStyle=1;fontFamily=Times New Roman;rounded=1;labelBackgroundColor=none;fontColor=#143642;strokeWidth=2;" parent="1" vertex="1">
          <mxGeometry x="1830" y="795" width="65" height="30" as="geometry" />
        </mxCell>
        <mxCell id="7eaRc9s0AeY9biqjr4J9-161" value="Password" style="ellipse;whiteSpace=wrap;html=1;strokeColor=#0F8B8D;fillColor=none;fontStyle=1;fontFamily=Times New Roman;rounded=1;labelBackgroundColor=none;fontColor=#143642;strokeWidth=2;" parent="1" vertex="1">
          <mxGeometry x="1785" y="821" width="65" height="30" as="geometry" />
        </mxCell>
        <mxCell id="7eaRc9s0AeY9biqjr4J9-162" value="Start-Date" style="ellipse;whiteSpace=wrap;html=1;strokeColor=#0F8B8D;fillColor=none;fontStyle=1;fontFamily=Times New Roman;rounded=1;labelBackgroundColor=none;fontColor=#143642;strokeWidth=2;" parent="1" vertex="1">
          <mxGeometry x="1735" y="846" width="65" height="30" as="geometry" />
        </mxCell>
        <mxCell id="7eaRc9s0AeY9biqjr4J9-163" value="Email" style="ellipse;whiteSpace=wrap;html=1;strokeColor=#0F8B8D;fillColor=none;fontStyle=1;fontFamily=Times New Roman;rounded=1;labelBackgroundColor=none;fontColor=#143642;strokeWidth=2;" parent="1" vertex="1">
          <mxGeometry x="1670" y="831" width="65" height="30" as="geometry" />
        </mxCell>
        <mxCell id="7eaRc9s0AeY9biqjr4J9-164" value="City" style="ellipse;whiteSpace=wrap;html=1;strokeColor=#0F8B8D;fillColor=none;fontStyle=1;fontFamily=Times New Roman;rounded=1;labelBackgroundColor=none;fontColor=#143642;strokeWidth=2;" parent="1" vertex="1">
          <mxGeometry x="1616.5" y="807" width="65" height="30" as="geometry" />
        </mxCell>
        <mxCell id="7eaRc9s0AeY9biqjr4J9-165" value="Salary" style="ellipse;whiteSpace=wrap;html=1;strokeColor=#0F8B8D;fillColor=none;fontStyle=1;fontFamily=Times New Roman;rounded=1;labelBackgroundColor=none;fontColor=#143642;strokeWidth=2;" parent="1" vertex="1">
          <mxGeometry x="1590" y="774" width="65" height="30" as="geometry" />
        </mxCell>
        <mxCell id="7eaRc9s0AeY9biqjr4J9-166" value="" style="endArrow=none;html=1;rounded=1;entryX=0;entryY=1;entryDx=0;entryDy=0;exitX=1;exitY=0;exitDx=0;exitDy=0;fontSize=12;fontStyle=1;fontFamily=Times New Roman;labelBackgroundColor=none;strokeColor=#A8201A;fontColor=#143642;strokeWidth=2;" parent="1" source="7eaRc9s0AeY9biqjr4J9-165" target="7eaRc9s0AeY9biqjr4J9-123" edge="1">
          <mxGeometry relative="1" as="geometry">
            <mxPoint x="1238" y="391" as="sourcePoint" />
            <mxPoint x="1270" y="431" as="targetPoint" />
          </mxGeometry>
        </mxCell>
        <mxCell id="7eaRc9s0AeY9biqjr4J9-168" value="" style="endArrow=none;html=1;rounded=1;entryX=0.25;entryY=1;entryDx=0;entryDy=0;exitX=0.5;exitY=0;exitDx=0;exitDy=0;fontSize=12;fontStyle=1;fontFamily=Times New Roman;labelBackgroundColor=none;strokeColor=#A8201A;fontColor=#143642;strokeWidth=2;" parent="1" source="7eaRc9s0AeY9biqjr4J9-164" target="7eaRc9s0AeY9biqjr4J9-123" edge="1">
          <mxGeometry relative="1" as="geometry">
            <mxPoint x="1655" y="788" as="sourcePoint" />
            <mxPoint x="1680" y="752" as="targetPoint" />
          </mxGeometry>
        </mxCell>
        <mxCell id="7eaRc9s0AeY9biqjr4J9-169" value="" style="endArrow=none;html=1;rounded=1;entryX=0.5;entryY=1;entryDx=0;entryDy=0;exitX=0.5;exitY=0;exitDx=0;exitDy=0;fontSize=12;fontStyle=1;fontFamily=Times New Roman;labelBackgroundColor=none;strokeColor=#A8201A;fontColor=#143642;strokeWidth=2;" parent="1" source="7eaRc9s0AeY9biqjr4J9-163" target="7eaRc9s0AeY9biqjr4J9-123" edge="1">
          <mxGeometry relative="1" as="geometry">
            <mxPoint x="1665" y="798" as="sourcePoint" />
            <mxPoint x="1690" y="762" as="targetPoint" />
          </mxGeometry>
        </mxCell>
        <mxCell id="7eaRc9s0AeY9biqjr4J9-170" value="" style="endArrow=none;html=1;rounded=1;entryX=0.75;entryY=1;entryDx=0;entryDy=0;exitX=0.5;exitY=0;exitDx=0;exitDy=0;fontSize=12;fontStyle=1;fontFamily=Times New Roman;labelBackgroundColor=none;strokeColor=#A8201A;fontColor=#143642;strokeWidth=2;" parent="1" source="7eaRc9s0AeY9biqjr4J9-162" target="7eaRc9s0AeY9biqjr4J9-123" edge="1">
          <mxGeometry relative="1" as="geometry">
            <mxPoint x="1675" y="808" as="sourcePoint" />
            <mxPoint x="1700" y="772" as="targetPoint" />
          </mxGeometry>
        </mxCell>
        <mxCell id="7eaRc9s0AeY9biqjr4J9-171" value="" style="endArrow=none;html=1;rounded=1;entryX=0.75;entryY=1;entryDx=0;entryDy=0;exitX=0.5;exitY=0;exitDx=0;exitDy=0;fontSize=12;fontStyle=1;fontFamily=Times New Roman;labelBackgroundColor=none;strokeColor=#A8201A;fontColor=#143642;strokeWidth=2;" parent="1" source="7eaRc9s0AeY9biqjr4J9-161" target="7eaRc9s0AeY9biqjr4J9-123" edge="1">
          <mxGeometry relative="1" as="geometry">
            <mxPoint x="1685" y="818" as="sourcePoint" />
            <mxPoint x="1710" y="782" as="targetPoint" />
          </mxGeometry>
        </mxCell>
        <mxCell id="7eaRc9s0AeY9biqjr4J9-172" value="" style="endArrow=none;html=1;rounded=1;entryX=1;entryY=1;entryDx=0;entryDy=0;exitX=0.5;exitY=0;exitDx=0;exitDy=0;fontSize=12;fontStyle=1;fontFamily=Times New Roman;labelBackgroundColor=none;strokeColor=#A8201A;fontColor=#143642;strokeWidth=2;" parent="1" source="7eaRc9s0AeY9biqjr4J9-160" target="7eaRc9s0AeY9biqjr4J9-123" edge="1">
          <mxGeometry relative="1" as="geometry">
            <mxPoint x="1695" y="828" as="sourcePoint" />
            <mxPoint x="1720" y="792" as="targetPoint" />
          </mxGeometry>
        </mxCell>
        <mxCell id="7eaRc9s0AeY9biqjr4J9-173" value="" style="endArrow=none;html=1;rounded=1;entryX=1;entryY=0.75;entryDx=0;entryDy=0;exitX=0;exitY=0;exitDx=0;exitDy=0;fontSize=12;fontStyle=1;fontFamily=Times New Roman;labelBackgroundColor=none;strokeColor=#A8201A;fontColor=#143642;strokeWidth=2;" parent="1" source="7eaRc9s0AeY9biqjr4J9-158" target="7eaRc9s0AeY9biqjr4J9-123" edge="1">
          <mxGeometry relative="1" as="geometry">
            <mxPoint x="1705" y="838" as="sourcePoint" />
            <mxPoint x="1730" y="802" as="targetPoint" />
          </mxGeometry>
        </mxCell>
        <mxCell id="7eaRc9s0AeY9biqjr4J9-174" value="" style="endArrow=none;html=1;rounded=1;entryX=1;entryY=0.5;entryDx=0;entryDy=0;exitX=0;exitY=0.5;exitDx=0;exitDy=0;fontSize=12;fontStyle=1;fontFamily=Times New Roman;labelBackgroundColor=none;strokeColor=#A8201A;fontColor=#143642;strokeWidth=2;" parent="1" source="7eaRc9s0AeY9biqjr4J9-157" target="7eaRc9s0AeY9biqjr4J9-123" edge="1">
          <mxGeometry relative="1" as="geometry">
            <mxPoint x="1715" y="848" as="sourcePoint" />
            <mxPoint x="1740" y="812" as="targetPoint" />
          </mxGeometry>
        </mxCell>
        <mxCell id="7eaRc9s0AeY9biqjr4J9-175" value="" style="endArrow=none;html=1;rounded=1;entryX=1;entryY=0.25;entryDx=0;entryDy=0;exitX=0;exitY=0.5;exitDx=0;exitDy=0;fontSize=12;fontStyle=1;fontFamily=Times New Roman;labelBackgroundColor=none;strokeColor=#A8201A;fontColor=#143642;strokeWidth=2;" parent="1" source="7eaRc9s0AeY9biqjr4J9-156" target="7eaRc9s0AeY9biqjr4J9-123" edge="1">
          <mxGeometry relative="1" as="geometry">
            <mxPoint x="1725" y="858" as="sourcePoint" />
            <mxPoint x="1750" y="822" as="targetPoint" />
          </mxGeometry>
        </mxCell>
        <mxCell id="7eaRc9s0AeY9biqjr4J9-176" value="" style="endArrow=none;html=1;rounded=1;entryX=1;entryY=0;entryDx=0;entryDy=0;exitX=0;exitY=0.5;exitDx=0;exitDy=0;fontSize=12;fontStyle=1;fontFamily=Times New Roman;labelBackgroundColor=none;strokeColor=#A8201A;fontColor=#143642;strokeWidth=2;" parent="1" source="7eaRc9s0AeY9biqjr4J9-155" target="7eaRc9s0AeY9biqjr4J9-123" edge="1">
          <mxGeometry relative="1" as="geometry">
            <mxPoint x="1735" y="868" as="sourcePoint" />
            <mxPoint x="1760" y="832" as="targetPoint" />
          </mxGeometry>
        </mxCell>
        <mxCell id="7eaRc9s0AeY9biqjr4J9-177" value="" style="endArrow=none;html=1;rounded=1;entryX=0.9;entryY=0;entryDx=0;entryDy=0;exitX=0;exitY=0.5;exitDx=0;exitDy=0;fontSize=12;fontStyle=1;fontFamily=Times New Roman;entryPerimeter=0;labelBackgroundColor=none;strokeColor=#A8201A;fontColor=#143642;strokeWidth=2;" parent="1" source="7eaRc9s0AeY9biqjr4J9-154" target="7eaRc9s0AeY9biqjr4J9-123" edge="1">
          <mxGeometry relative="1" as="geometry">
            <mxPoint x="1745" y="878" as="sourcePoint" />
            <mxPoint x="1770" y="842" as="targetPoint" />
          </mxGeometry>
        </mxCell>
        <mxCell id="7eaRc9s0AeY9biqjr4J9-178" value="" style="endArrow=none;html=1;rounded=1;entryX=0.85;entryY=0;entryDx=0;entryDy=0;exitX=0;exitY=1;exitDx=0;exitDy=0;fontSize=12;fontStyle=1;fontFamily=Times New Roman;entryPerimeter=0;labelBackgroundColor=none;strokeColor=#A8201A;fontColor=#143642;strokeWidth=2;" parent="1" source="7eaRc9s0AeY9biqjr4J9-153" target="7eaRc9s0AeY9biqjr4J9-123" edge="1">
          <mxGeometry relative="1" as="geometry">
            <mxPoint x="1755" y="888" as="sourcePoint" />
            <mxPoint x="1780" y="852" as="targetPoint" />
          </mxGeometry>
        </mxCell>
        <mxCell id="7eaRc9s0AeY9biqjr4J9-179" value="&lt;font style=&quot;font-size: 14px;&quot;&gt;Course&lt;/font&gt;" style="rounded=1;whiteSpace=wrap;html=1;fillColor=#FFE599;strokeColor=#0F8B8D;shadow=1;fontStyle=1;fontFamily=Times New Roman;strokeWidth=2;labelBackgroundColor=none;fontColor=#143642;" parent="1" vertex="1">
          <mxGeometry x="850" y="682" width="120" height="60" as="geometry" />
        </mxCell>
        <mxCell id="7eaRc9s0AeY9biqjr4J9-180" value="Tech" style="shape=rhombus;perimeter=rhombusPerimeter;whiteSpace=wrap;html=1;align=center;strokeColor=#0F8B8D;strokeWidth=2;fillColor=none;fontFamily=Times New Roman;rounded=1;fontStyle=1;shadow=0;labelBackgroundColor=none;fontColor=#143642;" parent="1" vertex="1">
          <mxGeometry x="1308" y="677" width="65" height="70" as="geometry" />
        </mxCell>
        <mxCell id="7eaRc9s0AeY9biqjr4J9-181" value="" style="endArrow=none;html=1;rounded=1;shape=link;entryX=1;entryY=0.5;entryDx=0;entryDy=0;exitX=0;exitY=0.5;exitDx=0;exitDy=0;edgeStyle=orthogonalEdgeStyle;curved=1;labelBackgroundColor=none;strokeColor=#A8201A;fontColor=#143642;strokeWidth=2;" parent="1" source="7eaRc9s0AeY9biqjr4J9-184" target="7eaRc9s0AeY9biqjr4J9-179" edge="1">
          <mxGeometry relative="1" as="geometry">
            <mxPoint x="1383" y="291" as="sourcePoint" />
            <mxPoint x="1680" y="291" as="targetPoint" />
          </mxGeometry>
        </mxCell>
        <mxCell id="7eaRc9s0AeY9biqjr4J9-183" value="" style="endArrow=none;html=1;rounded=1;entryX=0;entryY=0.5;entryDx=0;entryDy=0;exitX=1;exitY=0.5;exitDx=0;exitDy=0;edgeStyle=orthogonalEdgeStyle;labelBackgroundColor=none;strokeColor=#A8201A;fontColor=#143642;strokeWidth=2;" parent="1" source="7eaRc9s0AeY9biqjr4J9-186" target="7eaRc9s0AeY9biqjr4J9-123" edge="1">
          <mxGeometry relative="1" as="geometry">
            <mxPoint x="1540" y="532" as="sourcePoint" />
            <mxPoint x="1582" y="763" as="targetPoint" />
          </mxGeometry>
        </mxCell>
        <mxCell id="7eaRc9s0AeY9biqjr4J9-185" value="" style="endArrow=none;html=1;rounded=1;shape=link;entryX=1;entryY=0.5;entryDx=0;entryDy=0;exitX=0;exitY=0.5;exitDx=0;exitDy=0;edgeStyle=orthogonalEdgeStyle;curved=1;labelBackgroundColor=none;strokeColor=#A8201A;fontColor=#143642;strokeWidth=2;" parent="1" source="7eaRc9s0AeY9biqjr4J9-180" target="7eaRc9s0AeY9biqjr4J9-184" edge="1">
          <mxGeometry relative="1" as="geometry">
            <mxPoint x="1308" y="712" as="sourcePoint" />
            <mxPoint x="970" y="712" as="targetPoint" />
          </mxGeometry>
        </mxCell>
        <mxCell id="7eaRc9s0AeY9biqjr4J9-184" value="&lt;font style=&quot;font-size: 14px;&quot; face=&quot;Times New Roman&quot;&gt;&lt;b&gt;M&lt;/b&gt;&lt;/font&gt;" style="text;html=1;align=center;verticalAlign=middle;resizable=0;points=[];autosize=1;strokeColor=none;fillColor=none;rounded=1;labelBackgroundColor=none;fontColor=#143642;strokeWidth=2;" parent="1" vertex="1">
          <mxGeometry x="1248" y="697" width="40" height="30" as="geometry" />
        </mxCell>
        <mxCell id="7eaRc9s0AeY9biqjr4J9-187" value="" style="endArrow=none;html=1;rounded=1;entryX=0;entryY=0.5;entryDx=0;entryDy=0;exitX=1;exitY=0.5;exitDx=0;exitDy=0;edgeStyle=orthogonalEdgeStyle;labelBackgroundColor=none;strokeColor=#A8201A;fontColor=#143642;strokeWidth=2;" parent="1" source="7eaRc9s0AeY9biqjr4J9-180" target="7eaRc9s0AeY9biqjr4J9-186" edge="1">
          <mxGeometry relative="1" as="geometry">
            <mxPoint x="1373" y="712" as="sourcePoint" />
            <mxPoint x="1670" y="712" as="targetPoint" />
          </mxGeometry>
        </mxCell>
        <mxCell id="7eaRc9s0AeY9biqjr4J9-186" value="&lt;font style=&quot;font-size: 14px;&quot; face=&quot;Times New Roman&quot;&gt;&lt;b&gt;M&lt;/b&gt;&lt;/font&gt;" style="text;html=1;align=center;verticalAlign=middle;resizable=0;points=[];autosize=1;strokeColor=none;fillColor=none;rounded=1;labelBackgroundColor=none;fontColor=#143642;strokeWidth=2;" parent="1" vertex="1">
          <mxGeometry x="1390" y="697" width="40" height="30" as="geometry" />
        </mxCell>
        <mxCell id="7eaRc9s0AeY9biqjr4J9-188" value="Learn" style="shape=rhombus;perimeter=rhombusPerimeter;whiteSpace=wrap;html=1;align=center;strokeColor=#0F8B8D;strokeWidth=2;fillColor=none;fontFamily=Times New Roman;rounded=1;fontStyle=1;shadow=0;labelBackgroundColor=none;fontColor=#143642;" parent="1" vertex="1">
          <mxGeometry x="1096" y="502" width="65" height="70" as="geometry" />
        </mxCell>
        <mxCell id="7eaRc9s0AeY9biqjr4J9-189" value="" style="endArrow=none;html=1;rounded=1;shape=link;entryX=0.75;entryY=0;entryDx=0;entryDy=0;exitX=0.5;exitY=1;exitDx=0;exitDy=0;edgeStyle=orthogonalEdgeStyle;curved=1;labelBackgroundColor=none;strokeColor=#A8201A;fontColor=#143642;strokeWidth=2;" parent="1" source="7eaRc9s0AeY9biqjr4J9-195" target="7eaRc9s0AeY9biqjr4J9-179" edge="1">
          <mxGeometry relative="1" as="geometry">
            <mxPoint x="1258" y="722" as="sourcePoint" />
            <mxPoint x="980" y="722" as="targetPoint" />
          </mxGeometry>
        </mxCell>
        <mxCell id="7eaRc9s0AeY9biqjr4J9-191" value="" style="endArrow=none;html=1;rounded=1;shape=link;entryX=1;entryY=1;entryDx=0;entryDy=0;exitX=0;exitY=0.5;exitDx=0;exitDy=0;edgeStyle=orthogonalEdgeStyle;curved=1;labelBackgroundColor=none;strokeColor=#A8201A;fontColor=#143642;strokeWidth=2;" parent="1" source="7eaRc9s0AeY9biqjr4J9-202" target="7eaRc9s0AeY9biqjr4J9-1" edge="1">
          <mxGeometry relative="1" as="geometry">
            <mxPoint x="1278" y="742" as="sourcePoint" />
            <mxPoint x="1000" y="742" as="targetPoint" />
            <Array as="points" />
          </mxGeometry>
        </mxCell>
        <mxCell id="7eaRc9s0AeY9biqjr4J9-198" value="" style="endArrow=none;html=1;rounded=1;shape=link;exitX=0.5;exitY=1;exitDx=0;exitDy=0;edgeStyle=orthogonalEdgeStyle;curved=1;labelBackgroundColor=none;strokeColor=#A8201A;fontColor=#143642;strokeWidth=2;" parent="1" source="7eaRc9s0AeY9biqjr4J9-188" target="7eaRc9s0AeY9biqjr4J9-195" edge="1">
          <mxGeometry relative="1" as="geometry">
            <mxPoint x="1109" y="572" as="sourcePoint" />
            <mxPoint x="940" y="682" as="targetPoint" />
          </mxGeometry>
        </mxCell>
        <mxCell id="7eaRc9s0AeY9biqjr4J9-195" value="&lt;font style=&quot;font-size: 14px;&quot; face=&quot;Times New Roman&quot;&gt;&lt;b&gt;M&lt;/b&gt;&lt;/font&gt;" style="text;html=1;align=center;verticalAlign=middle;resizable=0;points=[];autosize=1;strokeColor=none;fillColor=none;rounded=1;labelBackgroundColor=none;fontColor=#143642;strokeWidth=2;" parent="1" vertex="1">
          <mxGeometry x="1089" y="584" width="40" height="30" as="geometry" />
        </mxCell>
        <mxCell id="7eaRc9s0AeY9biqjr4J9-203" value="" style="endArrow=none;html=1;rounded=1;shape=link;exitX=0;exitY=0.5;exitDx=0;exitDy=0;edgeStyle=orthogonalEdgeStyle;curved=1;labelBackgroundColor=none;strokeColor=#A8201A;fontColor=#143642;strokeWidth=2;" parent="1" source="7eaRc9s0AeY9biqjr4J9-188" target="7eaRc9s0AeY9biqjr4J9-202" edge="1">
          <mxGeometry relative="1" as="geometry">
            <mxPoint x="1077" y="537" as="sourcePoint" />
            <mxPoint x="970" y="311" as="targetPoint" />
            <Array as="points" />
          </mxGeometry>
        </mxCell>
        <mxCell id="7eaRc9s0AeY9biqjr4J9-202" value="&lt;font style=&quot;font-size: 14px;&quot; face=&quot;Times New Roman&quot;&gt;&lt;b&gt;M&lt;/b&gt;&lt;/font&gt;" style="text;html=1;align=center;verticalAlign=middle;resizable=0;points=[];autosize=1;strokeColor=none;fillColor=none;rounded=1;labelBackgroundColor=none;fontColor=#143642;strokeWidth=2;" parent="1" vertex="1">
          <mxGeometry x="1024" y="522" width="40" height="30" as="geometry" />
        </mxCell>
        <mxCell id="7eaRc9s0AeY9biqjr4J9-204" value="&lt;u&gt;Course-ID&lt;/u&gt;" style="ellipse;whiteSpace=wrap;html=1;strokeColor=#0F8B8D;fillColor=none;fontStyle=1;fontFamily=Times New Roman;rounded=1;labelBackgroundColor=none;fontColor=#143642;strokeWidth=2;" parent="1" vertex="1">
          <mxGeometry x="1010" y="726" width="80" height="30" as="geometry" />
        </mxCell>
        <mxCell id="7eaRc9s0AeY9biqjr4J9-205" value="Course-Name" style="ellipse;whiteSpace=wrap;html=1;strokeColor=#0F8B8D;fillColor=none;fontStyle=1;fontFamily=Times New Roman;rounded=1;labelBackgroundColor=none;fontColor=#143642;strokeWidth=2;" parent="1" vertex="1">
          <mxGeometry x="1004" y="761" width="80" height="30" as="geometry" />
        </mxCell>
        <mxCell id="7eaRc9s0AeY9biqjr4J9-208" value="Course-Hours" style="ellipse;whiteSpace=wrap;html=1;strokeColor=#0F8B8D;fillColor=none;fontStyle=1;fontFamily=Times New Roman;rounded=1;labelBackgroundColor=none;fontColor=#143642;strokeWidth=2;" parent="1" vertex="1">
          <mxGeometry x="944" y="791" width="80" height="30" as="geometry" />
        </mxCell>
        <mxCell id="7eaRc9s0AeY9biqjr4J9-209" value="" style="endArrow=none;html=1;rounded=1;entryX=1;entryY=0.75;entryDx=0;entryDy=0;fontSize=12;fontStyle=1;fontFamily=Times New Roman;exitX=0;exitY=0.5;exitDx=0;exitDy=0;labelBackgroundColor=none;strokeColor=#A8201A;fontColor=#143642;strokeWidth=2;" parent="1" source="7eaRc9s0AeY9biqjr4J9-204" target="7eaRc9s0AeY9biqjr4J9-179" edge="1">
          <mxGeometry relative="1" as="geometry">
            <mxPoint x="1170" y="491" as="sourcePoint" />
            <mxPoint x="1135" y="530" as="targetPoint" />
          </mxGeometry>
        </mxCell>
        <mxCell id="7eaRc9s0AeY9biqjr4J9-210" value="" style="endArrow=none;html=1;rounded=1;entryX=1;entryY=1;entryDx=0;entryDy=0;fontSize=12;fontStyle=1;fontFamily=Times New Roman;exitX=0;exitY=0;exitDx=0;exitDy=0;labelBackgroundColor=none;strokeColor=#A8201A;fontColor=#143642;strokeWidth=2;" parent="1" source="7eaRc9s0AeY9biqjr4J9-205" target="7eaRc9s0AeY9biqjr4J9-179" edge="1">
          <mxGeometry relative="1" as="geometry">
            <mxPoint x="1020" y="751" as="sourcePoint" />
            <mxPoint x="980" y="737" as="targetPoint" />
          </mxGeometry>
        </mxCell>
        <mxCell id="7eaRc9s0AeY9biqjr4J9-211" value="" style="endArrow=none;html=1;rounded=1;entryX=0.75;entryY=1;entryDx=0;entryDy=0;fontSize=12;fontStyle=1;fontFamily=Times New Roman;exitX=0.5;exitY=0;exitDx=0;exitDy=0;labelBackgroundColor=none;strokeColor=#A8201A;fontColor=#143642;strokeWidth=2;" parent="1" source="7eaRc9s0AeY9biqjr4J9-208" target="7eaRc9s0AeY9biqjr4J9-179" edge="1">
          <mxGeometry relative="1" as="geometry">
            <mxPoint x="1030" y="761" as="sourcePoint" />
            <mxPoint x="990" y="747" as="targetPoint" />
          </mxGeometry>
        </mxCell>
        <mxCell id="7eaRc9s0AeY9biqjr4J9-212" value="&lt;font style=&quot;font-size: 14px;&quot;&gt;Topic&lt;/font&gt;" style="rounded=1;whiteSpace=wrap;html=1;fillColor=#FFE599;strokeColor=#0F8B8D;shadow=1;fontStyle=1;fontFamily=Times New Roman;strokeWidth=2;labelBackgroundColor=none;fontColor=#143642;" parent="1" vertex="1">
          <mxGeometry x="850" y="940" width="120" height="60" as="geometry" />
        </mxCell>
        <mxCell id="7eaRc9s0AeY9biqjr4J9-213" value="Topic-Name" style="ellipse;whiteSpace=wrap;html=1;strokeColor=#0F8B8D;fillColor=none;fontStyle=1;fontFamily=Times New Roman;rounded=1;labelBackgroundColor=none;fontColor=#143642;strokeWidth=2;" parent="1" vertex="1">
          <mxGeometry x="1024" y="930" width="80" height="30" as="geometry" />
        </mxCell>
        <mxCell id="7eaRc9s0AeY9biqjr4J9-214" value="" style="endArrow=none;html=1;rounded=1;entryX=1;entryY=0.25;entryDx=0;entryDy=0;fontSize=12;fontStyle=1;fontFamily=Times New Roman;exitX=0;exitY=0.5;exitDx=0;exitDy=0;labelBackgroundColor=none;strokeColor=#A8201A;fontColor=#143642;strokeWidth=2;" parent="1" source="7eaRc9s0AeY9biqjr4J9-213" target="7eaRc9s0AeY9biqjr4J9-212" edge="1">
          <mxGeometry relative="1" as="geometry">
            <mxPoint x="1020" y="751" as="sourcePoint" />
            <mxPoint x="980" y="737" as="targetPoint" />
          </mxGeometry>
        </mxCell>
        <mxCell id="7eaRc9s0AeY9biqjr4J9-215" value="Include" style="shape=rhombus;perimeter=rhombusPerimeter;whiteSpace=wrap;html=1;align=center;strokeColor=#0F8B8D;strokeWidth=2;fillColor=none;fontFamily=Times New Roman;rounded=1;fontStyle=1;shadow=0;labelBackgroundColor=none;fontColor=#143642;" parent="1" vertex="1">
          <mxGeometry x="877.5" y="811" width="65" height="70" as="geometry" />
        </mxCell>
        <mxCell id="7eaRc9s0AeY9biqjr4J9-216" value="" style="endArrow=none;html=1;rounded=1;shape=link;exitX=0.5;exitY=0;exitDx=0;exitDy=0;edgeStyle=orthogonalEdgeStyle;curved=1;entryX=0.5;entryY=1;entryDx=0;entryDy=0;labelBackgroundColor=none;strokeColor=#A8201A;fontColor=#143642;strokeWidth=2;" parent="1" source="7eaRc9s0AeY9biqjr4J9-221" target="7eaRc9s0AeY9biqjr4J9-215" edge="1">
          <mxGeometry relative="1" as="geometry">
            <mxPoint x="1258" y="722" as="sourcePoint" />
            <mxPoint x="890" y="890" as="targetPoint" />
          </mxGeometry>
        </mxCell>
        <mxCell id="7eaRc9s0AeY9biqjr4J9-219" value="" style="endArrow=none;html=1;rounded=1;shape=link;exitX=0.5;exitY=1;exitDx=0;exitDy=0;edgeStyle=orthogonalEdgeStyle;curved=1;entryX=0.5;entryY=0;entryDx=0;entryDy=0;labelBackgroundColor=none;strokeColor=#A8201A;fontColor=#143642;strokeWidth=2;" parent="1" source="7eaRc9s0AeY9biqjr4J9-217" target="7eaRc9s0AeY9biqjr4J9-215" edge="1">
          <mxGeometry relative="1" as="geometry">
            <mxPoint x="920" y="950" as="sourcePoint" />
            <mxPoint x="920" y="891" as="targetPoint" />
          </mxGeometry>
        </mxCell>
        <mxCell id="7eaRc9s0AeY9biqjr4J9-220" value="" style="endArrow=none;html=1;rounded=1;shape=link;exitX=0.5;exitY=1;exitDx=0;exitDy=0;edgeStyle=orthogonalEdgeStyle;curved=1;entryX=0.5;entryY=0;entryDx=0;entryDy=0;labelBackgroundColor=none;strokeColor=#A8201A;fontColor=#143642;strokeWidth=2;" parent="1" source="7eaRc9s0AeY9biqjr4J9-179" target="7eaRc9s0AeY9biqjr4J9-217" edge="1">
          <mxGeometry relative="1" as="geometry">
            <mxPoint x="910" y="742" as="sourcePoint" />
            <mxPoint x="910" y="811" as="targetPoint" />
          </mxGeometry>
        </mxCell>
        <mxCell id="7eaRc9s0AeY9biqjr4J9-217" value="&lt;font style=&quot;font-size: 14px;&quot; face=&quot;Times New Roman&quot;&gt;&lt;b&gt;1&lt;/b&gt;&lt;/font&gt;" style="text;html=1;align=center;verticalAlign=middle;resizable=0;points=[];autosize=1;strokeColor=none;fillColor=none;rounded=1;labelBackgroundColor=none;fontColor=#143642;strokeWidth=2;" parent="1" vertex="1">
          <mxGeometry x="898" y="775" width="25" height="29" as="geometry" />
        </mxCell>
        <mxCell id="7eaRc9s0AeY9biqjr4J9-222" value="" style="endArrow=none;html=1;rounded=1;shape=link;exitX=0.5;exitY=0;exitDx=0;exitDy=0;edgeStyle=orthogonalEdgeStyle;curved=1;entryX=0.5;entryY=1;entryDx=0;entryDy=0;labelBackgroundColor=none;strokeColor=#A8201A;fontColor=#143642;strokeWidth=2;" parent="1" source="7eaRc9s0AeY9biqjr4J9-212" target="7eaRc9s0AeY9biqjr4J9-221" edge="1">
          <mxGeometry relative="1" as="geometry">
            <mxPoint x="910" y="940" as="sourcePoint" />
            <mxPoint x="910" y="881" as="targetPoint" />
          </mxGeometry>
        </mxCell>
        <mxCell id="7eaRc9s0AeY9biqjr4J9-221" value="&lt;font face=&quot;Times New Roman&quot;&gt;&lt;span style=&quot;font-size: 14px;&quot;&gt;&lt;b&gt;M&lt;/b&gt;&lt;/span&gt;&lt;/font&gt;" style="text;html=1;align=center;verticalAlign=middle;resizable=0;points=[];autosize=1;strokeColor=none;fillColor=none;rounded=1;labelBackgroundColor=none;fontColor=#143642;strokeWidth=2;" parent="1" vertex="1">
          <mxGeometry x="895" y="891" width="31" height="29" as="geometry" />
        </mxCell>
        <mxCell id="7eaRc9s0AeY9biqjr4J9-223" value="&lt;font style=&quot;font-size: 14px;&quot;&gt;Question&lt;/font&gt;" style="rounded=1;whiteSpace=wrap;html=1;fillColor=#FFE599;strokeColor=#0F8B8D;shadow=1;fontStyle=1;fontFamily=Times New Roman;strokeWidth=2;labelBackgroundColor=none;fontColor=#143642;" parent="1" vertex="1">
          <mxGeometry x="346" y="682" width="120" height="60" as="geometry" />
        </mxCell>
        <mxCell id="7eaRc9s0AeY9biqjr4J9-224" value="Has" style="shape=rhombus;perimeter=rhombusPerimeter;whiteSpace=wrap;html=1;align=center;strokeColor=#0F8B8D;strokeWidth=2;fillColor=none;fontFamily=Times New Roman;rounded=1;fontStyle=1;shadow=0;labelBackgroundColor=none;fontColor=#143642;" parent="1" vertex="1">
          <mxGeometry x="615" y="677" width="65" height="70" as="geometry" />
        </mxCell>
        <mxCell id="7eaRc9s0AeY9biqjr4J9-225" value="" style="endArrow=none;html=1;rounded=1;shape=link;exitX=1;exitY=0.5;exitDx=0;exitDy=0;edgeStyle=orthogonalEdgeStyle;curved=1;entryX=0;entryY=0.5;entryDx=0;entryDy=0;labelBackgroundColor=none;strokeColor=#A8201A;fontColor=#143642;strokeWidth=2;" parent="1" source="7eaRc9s0AeY9biqjr4J9-226" target="7eaRc9s0AeY9biqjr4J9-224" edge="1">
          <mxGeometry relative="1" as="geometry">
            <mxPoint x="409.5" y="580" as="sourcePoint" />
            <mxPoint x="600" y="730" as="targetPoint" />
          </mxGeometry>
        </mxCell>
        <mxCell id="7eaRc9s0AeY9biqjr4J9-227" value="" style="endArrow=none;html=1;rounded=1;shape=link;exitX=1;exitY=0.5;exitDx=0;exitDy=0;edgeStyle=orthogonalEdgeStyle;curved=1;entryX=0;entryY=0.5;entryDx=0;entryDy=0;labelBackgroundColor=none;strokeColor=#A8201A;fontColor=#143642;strokeWidth=2;" parent="1" source="7eaRc9s0AeY9biqjr4J9-223" target="7eaRc9s0AeY9biqjr4J9-226" edge="1">
          <mxGeometry relative="1" as="geometry">
            <mxPoint x="466" y="712" as="sourcePoint" />
            <mxPoint x="615" y="712" as="targetPoint" />
          </mxGeometry>
        </mxCell>
        <mxCell id="7eaRc9s0AeY9biqjr4J9-226" value="&lt;font style=&quot;font-size: 14px;&quot; face=&quot;Times New Roman&quot;&gt;&lt;b&gt;M&lt;/b&gt;&lt;/font&gt;" style="text;html=1;align=center;verticalAlign=middle;resizable=0;points=[];autosize=1;strokeColor=none;fillColor=none;rounded=1;labelBackgroundColor=none;fontColor=#143642;strokeWidth=2;" parent="1" vertex="1">
          <mxGeometry x="560" y="697" width="40" height="30" as="geometry" />
        </mxCell>
        <mxCell id="7eaRc9s0AeY9biqjr4J9-228" value="" style="endArrow=none;html=1;rounded=1;entryX=0;entryY=0.5;entryDx=0;entryDy=0;exitX=1;exitY=0.5;exitDx=0;exitDy=0;edgeStyle=orthogonalEdgeStyle;labelBackgroundColor=none;strokeColor=#A8201A;fontColor=#143642;strokeWidth=2;" parent="1" source="7eaRc9s0AeY9biqjr4J9-229" target="7eaRc9s0AeY9biqjr4J9-179" edge="1">
          <mxGeometry relative="1" as="geometry">
            <mxPoint x="720" y="560" as="sourcePoint" />
            <mxPoint x="762" y="791" as="targetPoint" />
          </mxGeometry>
        </mxCell>
        <mxCell id="7eaRc9s0AeY9biqjr4J9-231" value="" style="endArrow=none;html=1;rounded=1;entryX=0;entryY=0.5;entryDx=0;entryDy=0;exitX=1;exitY=0.5;exitDx=0;exitDy=0;edgeStyle=orthogonalEdgeStyle;labelBackgroundColor=none;strokeColor=#A8201A;fontColor=#143642;strokeWidth=2;" parent="1" source="7eaRc9s0AeY9biqjr4J9-224" target="7eaRc9s0AeY9biqjr4J9-229" edge="1">
          <mxGeometry relative="1" as="geometry">
            <mxPoint x="680" y="712" as="sourcePoint" />
            <mxPoint x="850" y="712" as="targetPoint" />
          </mxGeometry>
        </mxCell>
        <mxCell id="7eaRc9s0AeY9biqjr4J9-229" value="&lt;font style=&quot;font-size: 14px;&quot; face=&quot;Times New Roman&quot;&gt;&lt;b&gt;1&lt;/b&gt;&lt;/font&gt;" style="text;html=1;align=center;verticalAlign=middle;resizable=0;points=[];autosize=1;strokeColor=none;fillColor=none;rounded=1;labelBackgroundColor=none;fontColor=#143642;strokeWidth=2;" parent="1" vertex="1">
          <mxGeometry x="697.5" y="697" width="30" height="30" as="geometry" />
        </mxCell>
        <mxCell id="7eaRc9s0AeY9biqjr4J9-233" value="&lt;u&gt;Ques-ID&lt;/u&gt;" style="ellipse;whiteSpace=wrap;html=1;strokeColor=#0F8B8D;fillColor=none;fontStyle=1;fontFamily=Times New Roman;rounded=1;labelBackgroundColor=none;fontColor=#143642;strokeWidth=2;" parent="1" vertex="1">
          <mxGeometry x="495" y="735" width="80" height="30" as="geometry" />
        </mxCell>
        <mxCell id="7eaRc9s0AeY9biqjr4J9-234" value="Ques" style="ellipse;whiteSpace=wrap;html=1;strokeColor=#0F8B8D;fillColor=none;fontStyle=1;fontFamily=Times New Roman;rounded=1;labelBackgroundColor=none;fontColor=#143642;strokeWidth=2;" parent="1" vertex="1">
          <mxGeometry x="463" y="769" width="80" height="30" as="geometry" />
        </mxCell>
        <mxCell id="7eaRc9s0AeY9biqjr4J9-235" value="Ques-Type" style="ellipse;whiteSpace=wrap;html=1;strokeColor=#0F8B8D;fillColor=none;fontStyle=1;fontFamily=Times New Roman;rounded=1;labelBackgroundColor=none;fontColor=#143642;strokeWidth=2;" parent="1" vertex="1">
          <mxGeometry x="420" y="800" width="80" height="30" as="geometry" />
        </mxCell>
        <mxCell id="7eaRc9s0AeY9biqjr4J9-236" value="Fullmark" style="ellipse;whiteSpace=wrap;html=1;strokeColor=#0F8B8D;fillColor=none;fontStyle=1;fontFamily=Times New Roman;rounded=1;labelBackgroundColor=none;fontColor=#143642;strokeWidth=2;" parent="1" vertex="1">
          <mxGeometry x="346" y="816" width="80" height="30" as="geometry" />
        </mxCell>
        <mxCell id="7eaRc9s0AeY9biqjr4J9-238" value="Choices" style="ellipse;shape=doubleEllipse;margin=3;whiteSpace=wrap;html=1;align=center;rounded=1;fontFamily=Times New Roman;fillColor=none;strokeColor=#0F8B8D;fontStyle=1;labelBackgroundColor=none;fontColor=#143642;strokeWidth=2;" parent="1" vertex="1">
          <mxGeometry x="280" y="795" width="80" height="30" as="geometry" />
        </mxCell>
        <mxCell id="7eaRc9s0AeY9biqjr4J9-240" value="" style="endArrow=none;html=1;rounded=1;entryX=0;entryY=0;entryDx=0;entryDy=0;fontSize=12;fontStyle=1;fontFamily=Times New Roman;exitX=1;exitY=0.75;exitDx=0;exitDy=0;labelBackgroundColor=none;strokeColor=#A8201A;fontColor=#143642;strokeWidth=2;" parent="1" source="7eaRc9s0AeY9biqjr4J9-223" target="7eaRc9s0AeY9biqjr4J9-233" edge="1">
          <mxGeometry relative="1" as="geometry">
            <mxPoint x="994" y="801" as="sourcePoint" />
            <mxPoint x="950" y="752" as="targetPoint" />
          </mxGeometry>
        </mxCell>
        <mxCell id="7eaRc9s0AeY9biqjr4J9-241" value="" style="endArrow=none;html=1;rounded=1;entryX=0.5;entryY=0;entryDx=0;entryDy=0;fontSize=12;fontStyle=1;fontFamily=Times New Roman;exitX=1;exitY=1;exitDx=0;exitDy=0;labelBackgroundColor=none;strokeColor=#A8201A;fontColor=#143642;strokeWidth=2;" parent="1" source="7eaRc9s0AeY9biqjr4J9-223" target="7eaRc9s0AeY9biqjr4J9-234" edge="1">
          <mxGeometry relative="1" as="geometry">
            <mxPoint x="476" y="737" as="sourcePoint" />
            <mxPoint x="517" y="749" as="targetPoint" />
          </mxGeometry>
        </mxCell>
        <mxCell id="7eaRc9s0AeY9biqjr4J9-242" value="" style="endArrow=none;html=1;rounded=1;entryX=0.5;entryY=0;entryDx=0;entryDy=0;fontSize=12;fontStyle=1;fontFamily=Times New Roman;exitX=0.75;exitY=1;exitDx=0;exitDy=0;labelBackgroundColor=none;strokeColor=#A8201A;fontColor=#143642;strokeWidth=2;" parent="1" source="7eaRc9s0AeY9biqjr4J9-223" target="7eaRc9s0AeY9biqjr4J9-235" edge="1">
          <mxGeometry relative="1" as="geometry">
            <mxPoint x="486" y="747" as="sourcePoint" />
            <mxPoint x="527" y="759" as="targetPoint" />
          </mxGeometry>
        </mxCell>
        <mxCell id="7eaRc9s0AeY9biqjr4J9-243" value="" style="endArrow=none;html=1;rounded=1;entryX=0.5;entryY=0;entryDx=0;entryDy=0;fontSize=12;fontStyle=1;fontFamily=Times New Roman;exitX=0.5;exitY=1;exitDx=0;exitDy=0;labelBackgroundColor=none;strokeColor=#A8201A;fontColor=#143642;strokeWidth=2;" parent="1" source="7eaRc9s0AeY9biqjr4J9-223" target="7eaRc9s0AeY9biqjr4J9-236" edge="1">
          <mxGeometry relative="1" as="geometry">
            <mxPoint x="496" y="757" as="sourcePoint" />
            <mxPoint x="537" y="769" as="targetPoint" />
          </mxGeometry>
        </mxCell>
        <mxCell id="7eaRc9s0AeY9biqjr4J9-244" value="" style="endArrow=none;html=1;rounded=1;entryX=1;entryY=0;entryDx=0;entryDy=0;fontSize=12;fontStyle=1;fontFamily=Times New Roman;exitX=0.25;exitY=1;exitDx=0;exitDy=0;labelBackgroundColor=none;strokeColor=#A8201A;fontColor=#143642;strokeWidth=2;" parent="1" source="7eaRc9s0AeY9biqjr4J9-223" target="7eaRc9s0AeY9biqjr4J9-238" edge="1">
          <mxGeometry relative="1" as="geometry">
            <mxPoint x="506" y="767" as="sourcePoint" />
            <mxPoint x="547" y="779" as="targetPoint" />
          </mxGeometry>
        </mxCell>
        <mxCell id="7eaRc9s0AeY9biqjr4J9-245" value="" style="endArrow=none;html=1;rounded=1;entryX=0;entryY=0.75;entryDx=0;entryDy=0;fontSize=12;fontStyle=1;fontFamily=Times New Roman;exitX=0.5;exitY=0;exitDx=0;exitDy=0;labelBackgroundColor=none;strokeColor=#A8201A;fontColor=#143642;strokeWidth=2;" parent="1" source="cgjNUOlxkd2wtI8anm0e-1" target="7eaRc9s0AeY9biqjr4J9-223" edge="1">
          <mxGeometry relative="1" as="geometry">
            <mxPoint x="300" y="761" as="sourcePoint" />
            <mxPoint x="557" y="789" as="targetPoint" />
          </mxGeometry>
        </mxCell>
        <mxCell id="7eaRc9s0AeY9biqjr4J9-249" value="&lt;font style=&quot;font-size: 14px;&quot;&gt;Exam&lt;/font&gt;" style="rounded=1;whiteSpace=wrap;html=1;fillColor=#FFE599;strokeColor=#0F8B8D;shadow=1;fontStyle=1;fontFamily=Times New Roman;strokeWidth=2;labelBackgroundColor=none;fontColor=#143642;" parent="1" vertex="1">
          <mxGeometry x="200" y="540" width="120" height="60" as="geometry" />
        </mxCell>
        <mxCell id="7eaRc9s0AeY9biqjr4J9-250" value="&lt;u&gt;Exam-ID&lt;/u&gt;" style="ellipse;whiteSpace=wrap;html=1;strokeColor=#0F8B8D;fillColor=none;fontStyle=1;fontFamily=Times New Roman;rounded=1;labelBackgroundColor=none;fontColor=#143642;strokeWidth=2;" parent="1" vertex="1">
          <mxGeometry x="105" y="495" width="80" height="30" as="geometry" />
        </mxCell>
        <mxCell id="7eaRc9s0AeY9biqjr4J9-251" value="" style="endArrow=none;html=1;rounded=1;entryX=0;entryY=0.25;entryDx=0;entryDy=0;fontSize=12;fontStyle=1;fontFamily=Times New Roman;exitX=1;exitY=1;exitDx=0;exitDy=0;labelBackgroundColor=none;strokeColor=#A8201A;fontColor=#143642;strokeWidth=2;" parent="1" source="7eaRc9s0AeY9biqjr4J9-250" target="7eaRc9s0AeY9biqjr4J9-249" edge="1">
          <mxGeometry relative="1" as="geometry">
            <mxPoint x="476" y="737" as="sourcePoint" />
            <mxPoint x="517" y="749" as="targetPoint" />
          </mxGeometry>
        </mxCell>
        <mxCell id="7eaRc9s0AeY9biqjr4J9-252" value="Fullmark" style="ellipse;whiteSpace=wrap;html=1;strokeColor=#0F8B8D;fillColor=none;fontStyle=1;fontFamily=Times New Roman;rounded=1;dashed=1;labelBackgroundColor=none;fontColor=#143642;strokeWidth=2;" parent="1" vertex="1">
          <mxGeometry x="87" y="535" width="80" height="30" as="geometry" />
        </mxCell>
        <mxCell id="7eaRc9s0AeY9biqjr4J9-253" value="Number-Of-Questions" style="ellipse;whiteSpace=wrap;html=1;strokeColor=#0F8B8D;fillColor=none;fontStyle=1;fontFamily=Times New Roman;rounded=1;labelBackgroundColor=none;fontColor=#143642;strokeWidth=2;" parent="1" vertex="1">
          <mxGeometry x="96" y="598" width="90" height="40" as="geometry" />
        </mxCell>
        <mxCell id="7eaRc9s0AeY9biqjr4J9-254" value="" style="endArrow=none;html=1;rounded=1;entryX=0;entryY=0.5;entryDx=0;entryDy=0;fontSize=12;fontStyle=1;fontFamily=Times New Roman;exitX=1;exitY=0.5;exitDx=0;exitDy=0;labelBackgroundColor=none;strokeColor=#A8201A;fontColor=#143642;strokeWidth=2;" parent="1" source="7eaRc9s0AeY9biqjr4J9-252" target="7eaRc9s0AeY9biqjr4J9-249" edge="1">
          <mxGeometry relative="1" as="geometry">
            <mxPoint x="158" y="546" as="sourcePoint" />
            <mxPoint x="210" y="565" as="targetPoint" />
          </mxGeometry>
        </mxCell>
        <mxCell id="7eaRc9s0AeY9biqjr4J9-255" value="" style="endArrow=none;html=1;rounded=1;entryX=0;entryY=1;entryDx=0;entryDy=0;fontSize=12;fontStyle=1;fontFamily=Times New Roman;exitX=1;exitY=0.5;exitDx=0;exitDy=0;labelBackgroundColor=none;strokeColor=#A8201A;fontColor=#143642;strokeWidth=2;" parent="1" source="7eaRc9s0AeY9biqjr4J9-253" target="7eaRc9s0AeY9biqjr4J9-249" edge="1">
          <mxGeometry relative="1" as="geometry">
            <mxPoint x="168" y="556" as="sourcePoint" />
            <mxPoint x="220" y="575" as="targetPoint" />
          </mxGeometry>
        </mxCell>
        <mxCell id="7eaRc9s0AeY9biqjr4J9-256" value="Has" style="shape=rhombus;perimeter=rhombusPerimeter;whiteSpace=wrap;html=1;align=center;strokeColor=#0F8B8D;strokeWidth=2;fillColor=none;fontFamily=Times New Roman;rounded=1;fontStyle=1;shadow=0;labelBackgroundColor=none;fontColor=#143642;" parent="1" vertex="1">
          <mxGeometry x="150" y="677" width="65" height="70" as="geometry" />
        </mxCell>
        <mxCell id="7eaRc9s0AeY9biqjr4J9-257" value="" style="endArrow=none;html=1;rounded=1;shape=link;entryX=0.5;entryY=0;entryDx=0;entryDy=0;exitX=0.5;exitY=1;exitDx=0;exitDy=0;edgeStyle=orthogonalEdgeStyle;curved=1;labelBackgroundColor=none;strokeColor=#A8201A;fontColor=#143642;strokeWidth=2;" parent="1" source="7eaRc9s0AeY9biqjr4J9-259" target="7eaRc9s0AeY9biqjr4J9-256" edge="1">
          <mxGeometry relative="1" as="geometry">
            <mxPoint x="275" y="396" as="sourcePoint" />
            <mxPoint x="610" y="371" as="targetPoint" />
          </mxGeometry>
        </mxCell>
        <mxCell id="7eaRc9s0AeY9biqjr4J9-258" value="" style="endArrow=none;html=1;rounded=1;entryX=0;entryY=0.5;entryDx=0;entryDy=0;exitX=1;exitY=0.5;exitDx=0;exitDy=0;edgeStyle=orthogonalEdgeStyle;labelBackgroundColor=none;strokeColor=#A8201A;fontColor=#143642;strokeWidth=2;" parent="1" source="7eaRc9s0AeY9biqjr4J9-261" target="7eaRc9s0AeY9biqjr4J9-223" edge="1">
          <mxGeometry relative="1" as="geometry">
            <mxPoint x="738" y="722" as="sourcePoint" />
            <mxPoint x="860" y="722" as="targetPoint" />
          </mxGeometry>
        </mxCell>
        <mxCell id="7eaRc9s0AeY9biqjr4J9-260" value="" style="endArrow=none;html=1;rounded=1;shape=link;entryX=0.5;entryY=0;entryDx=0;entryDy=0;exitX=0.5;exitY=1;exitDx=0;exitDy=0;edgeStyle=orthogonalEdgeStyle;curved=1;labelBackgroundColor=none;strokeColor=#A8201A;fontColor=#143642;strokeWidth=2;" parent="1" source="7eaRc9s0AeY9biqjr4J9-249" target="7eaRc9s0AeY9biqjr4J9-259" edge="1">
          <mxGeometry relative="1" as="geometry">
            <mxPoint x="260" y="600" as="sourcePoint" />
            <mxPoint x="183" y="677" as="targetPoint" />
            <Array as="points">
              <mxPoint x="260" y="640" />
              <mxPoint x="183" y="640" />
            </Array>
          </mxGeometry>
        </mxCell>
        <mxCell id="7eaRc9s0AeY9biqjr4J9-259" value="&lt;font style=&quot;font-size: 14px;&quot; face=&quot;Times New Roman&quot;&gt;&lt;b&gt;M&lt;/b&gt;&lt;/font&gt;" style="text;html=1;align=center;verticalAlign=middle;resizable=0;points=[];autosize=1;strokeColor=none;fillColor=none;rounded=1;labelBackgroundColor=none;fontColor=#143642;strokeWidth=2;" parent="1" vertex="1">
          <mxGeometry x="162.5" y="644" width="40" height="30" as="geometry" />
        </mxCell>
        <mxCell id="7eaRc9s0AeY9biqjr4J9-262" value="" style="endArrow=none;html=1;rounded=1;entryX=0;entryY=0.5;entryDx=0;entryDy=0;exitX=1;exitY=0.5;exitDx=0;exitDy=0;edgeStyle=orthogonalEdgeStyle;labelBackgroundColor=none;strokeColor=#A8201A;fontColor=#143642;strokeWidth=2;" parent="1" source="7eaRc9s0AeY9biqjr4J9-256" target="7eaRc9s0AeY9biqjr4J9-261" edge="1">
          <mxGeometry relative="1" as="geometry">
            <mxPoint x="215" y="712" as="sourcePoint" />
            <mxPoint x="346" y="712" as="targetPoint" />
          </mxGeometry>
        </mxCell>
        <mxCell id="7eaRc9s0AeY9biqjr4J9-261" value="&lt;font style=&quot;font-size: 14px;&quot; face=&quot;Times New Roman&quot;&gt;&lt;b&gt;M&lt;/b&gt;&lt;/font&gt;" style="text;html=1;align=center;verticalAlign=middle;resizable=0;points=[];autosize=1;strokeColor=none;fillColor=none;rounded=1;labelBackgroundColor=none;fontColor=#143642;strokeWidth=2;" parent="1" vertex="1">
          <mxGeometry x="220" y="697" width="40" height="30" as="geometry" />
        </mxCell>
        <mxCell id="7eaRc9s0AeY9biqjr4J9-263" value="Answer" style="shape=rhombus;perimeter=rhombusPerimeter;whiteSpace=wrap;html=1;align=center;strokeColor=#0F8B8D;strokeWidth=2;fillColor=none;fontFamily=Times New Roman;rounded=1;fontStyle=1;shadow=0;labelBackgroundColor=none;fontColor=#143642;" parent="1" vertex="1">
          <mxGeometry x="565" y="481" width="65" height="70" as="geometry" />
        </mxCell>
        <mxCell id="7eaRc9s0AeY9biqjr4J9-264" value="" style="endArrow=none;html=1;rounded=1;entryX=0.5;entryY=1;entryDx=0;entryDy=0;exitX=1;exitY=0.5;exitDx=0;exitDy=0;edgeStyle=orthogonalEdgeStyle;labelBackgroundColor=none;strokeColor=#A8201A;fontColor=#143642;strokeWidth=2;" parent="1" source="iitr8_w2NvcruE1Lk_e8-35" target="7eaRc9s0AeY9biqjr4J9-1" edge="1">
          <mxGeometry relative="1" as="geometry">
            <mxPoint x="738" y="722" as="sourcePoint" />
            <mxPoint x="860" y="722" as="targetPoint" />
          </mxGeometry>
        </mxCell>
        <mxCell id="7eaRc9s0AeY9biqjr4J9-265" value="" style="endArrow=none;html=1;rounded=1;entryX=0.5;entryY=0;entryDx=0;entryDy=0;exitX=0.5;exitY=1;exitDx=0;exitDy=0;edgeStyle=orthogonalEdgeStyle;labelBackgroundColor=none;strokeColor=#A8201A;fontColor=#143642;strokeWidth=2;" parent="1" source="iitr8_w2NvcruE1Lk_e8-25" target="7eaRc9s0AeY9biqjr4J9-223" edge="1">
          <mxGeometry relative="1" as="geometry">
            <mxPoint x="640" y="526" as="sourcePoint" />
            <mxPoint x="920" y="321" as="targetPoint" />
          </mxGeometry>
        </mxCell>
        <mxCell id="7eaRc9s0AeY9biqjr4J9-266" value="" style="endArrow=none;html=1;rounded=1;entryX=1;entryY=0.5;entryDx=0;entryDy=0;exitX=0;exitY=0.5;exitDx=0;exitDy=0;edgeStyle=orthogonalEdgeStyle;labelBackgroundColor=none;strokeColor=#A8201A;fontColor=#143642;strokeWidth=2;" parent="1" source="iitr8_w2NvcruE1Lk_e8-28" target="7eaRc9s0AeY9biqjr4J9-249" edge="1">
          <mxGeometry relative="1" as="geometry">
            <mxPoint x="608" y="561" as="sourcePoint" />
            <mxPoint x="416" y="692" as="targetPoint" />
          </mxGeometry>
        </mxCell>
        <mxCell id="7eaRc9s0AeY9biqjr4J9-267" value="Grade" style="ellipse;whiteSpace=wrap;html=1;strokeColor=#0F8B8D;fillColor=none;fontStyle=1;fontFamily=Times New Roman;rounded=1;labelBackgroundColor=none;fontColor=#143642;strokeWidth=2;" parent="1" vertex="1">
          <mxGeometry x="495" y="436" width="80" height="30" as="geometry" />
        </mxCell>
        <mxCell id="7eaRc9s0AeY9biqjr4J9-269" value="" style="endArrow=none;html=1;rounded=1;entryX=0;entryY=0;entryDx=0;entryDy=0;fontSize=12;fontStyle=1;fontFamily=Times New Roman;exitX=0.5;exitY=1;exitDx=0;exitDy=0;labelBackgroundColor=none;strokeColor=#A8201A;fontColor=#143642;strokeWidth=2;" parent="1" source="7eaRc9s0AeY9biqjr4J9-267" target="7eaRc9s0AeY9biqjr4J9-263" edge="1">
          <mxGeometry relative="1" as="geometry">
            <mxPoint x="476" y="737" as="sourcePoint" />
            <mxPoint x="517" y="749" as="targetPoint" />
          </mxGeometry>
        </mxCell>
        <mxCell id="7eaRc9s0AeY9biqjr4J9-270" value="" style="endArrow=none;html=1;rounded=1;entryX=1;entryY=0;entryDx=0;entryDy=0;fontSize=12;fontStyle=1;fontFamily=Times New Roman;exitX=0.5;exitY=1;exitDx=0;exitDy=0;labelBackgroundColor=none;strokeColor=#A8201A;fontColor=#143642;strokeWidth=2;" parent="1" source="cgjNUOlxkd2wtI8anm0e-2" target="7eaRc9s0AeY9biqjr4J9-263" edge="1">
          <mxGeometry relative="1" as="geometry">
            <mxPoint x="657.5" y="466" as="sourcePoint" />
            <mxPoint x="591" y="509" as="targetPoint" />
          </mxGeometry>
        </mxCell>
        <mxCell id="7eaRc9s0AeY9biqjr4J9-271" value="Start-Date" style="ellipse;whiteSpace=wrap;html=1;strokeColor=#0F8B8D;fillColor=none;fontStyle=1;fontFamily=Times New Roman;rounded=1;labelBackgroundColor=none;fontColor=#143642;strokeWidth=2;" parent="1" vertex="1">
          <mxGeometry x="1197.5" y="218" width="60" height="30" as="geometry" />
        </mxCell>
        <mxCell id="7eaRc9s0AeY9biqjr4J9-272" value="End-Date" style="ellipse;whiteSpace=wrap;html=1;strokeColor=#0F8B8D;fillColor=none;fontStyle=1;fontFamily=Times New Roman;rounded=1;labelBackgroundColor=none;fontColor=#143642;strokeWidth=2;" parent="1" vertex="1">
          <mxGeometry x="1330" y="218" width="60" height="30" as="geometry" />
        </mxCell>
        <mxCell id="7eaRc9s0AeY9biqjr4J9-273" value="" style="endArrow=none;html=1;rounded=1;entryX=0;entryY=0;entryDx=0;entryDy=0;exitX=1;exitY=1;exitDx=0;exitDy=0;fontSize=12;fontStyle=1;fontFamily=Times New Roman;labelBackgroundColor=none;strokeColor=#A8201A;fontColor=#143642;strokeWidth=2;" parent="1" source="7eaRc9s0AeY9biqjr4J9-271" target="7eaRc9s0AeY9biqjr4J9-101" edge="1">
          <mxGeometry relative="1" as="geometry">
            <mxPoint x="1040" y="229" as="sourcePoint" />
            <mxPoint x="980" y="276" as="targetPoint" />
          </mxGeometry>
        </mxCell>
        <mxCell id="7eaRc9s0AeY9biqjr4J9-274" value="" style="endArrow=none;html=1;rounded=1;entryX=1;entryY=0;entryDx=0;entryDy=0;exitX=0.5;exitY=1;exitDx=0;exitDy=0;fontSize=12;fontStyle=1;fontFamily=Times New Roman;labelBackgroundColor=none;strokeColor=#A8201A;fontColor=#143642;strokeWidth=2;" parent="1" source="7eaRc9s0AeY9biqjr4J9-272" target="7eaRc9s0AeY9biqjr4J9-101" edge="1">
          <mxGeometry relative="1" as="geometry">
            <mxPoint x="1050" y="239" as="sourcePoint" />
            <mxPoint x="990" y="286" as="targetPoint" />
          </mxGeometry>
        </mxCell>
        <mxCell id="cKL6_XldvzGLVFUlhVQX-1" value="&lt;u&gt;Track-ID&lt;/u&gt;" style="ellipse;whiteSpace=wrap;html=1;strokeColor=#0F8B8D;fillColor=none;fontStyle=1;fontFamily=Times New Roman;rounded=1;labelBackgroundColor=none;fontColor=#143642;strokeWidth=2;" parent="1" vertex="1">
          <mxGeometry x="1630" y="155" width="80" height="30" as="geometry" />
        </mxCell>
        <mxCell id="cKL6_XldvzGLVFUlhVQX-2" value="" style="endArrow=none;html=1;rounded=1;entryX=0.25;entryY=0;entryDx=0;entryDy=0;exitX=0.5;exitY=1;exitDx=0;exitDy=0;fontSize=12;fontStyle=1;fontFamily=Times New Roman;labelBackgroundColor=none;strokeColor=#A8201A;fontColor=#143642;strokeWidth=2;" parent="1" source="cKL6_XldvzGLVFUlhVQX-1" target="7eaRc9s0AeY9biqjr4J9-94" edge="1">
          <mxGeometry relative="1" as="geometry">
            <mxPoint x="1770" y="209" as="sourcePoint" />
            <mxPoint x="1770" y="261" as="targetPoint" />
          </mxGeometry>
        </mxCell>
        <mxCell id="cKL6_XldvzGLVFUlhVQX-3" value="&lt;u&gt;Branch-ID&lt;/u&gt;" style="ellipse;whiteSpace=wrap;html=1;strokeColor=#0F8B8D;fillColor=none;fontStyle=1;fontFamily=Times New Roman;rounded=1;labelBackgroundColor=none;fontColor=#143642;strokeWidth=2;" parent="1" vertex="1">
          <mxGeometry x="1139" y="379" width="80" height="30" as="geometry" />
        </mxCell>
        <mxCell id="cKL6_XldvzGLVFUlhVQX-4" value="" style="endArrow=none;html=1;rounded=1;entryX=0;entryY=0.15;entryDx=0;entryDy=0;exitX=0.5;exitY=1;exitDx=0;exitDy=0;fontSize=12;fontStyle=1;fontFamily=Times New Roman;entryPerimeter=0;labelBackgroundColor=none;strokeColor=#A8201A;fontColor=#143642;strokeWidth=2;" parent="1" source="cKL6_XldvzGLVFUlhVQX-3" target="7eaRc9s0AeY9biqjr4J9-96" edge="1">
          <mxGeometry relative="1" as="geometry">
            <mxPoint x="1238" y="391" as="sourcePoint" />
            <mxPoint x="1270" y="431" as="targetPoint" />
          </mxGeometry>
        </mxCell>
        <mxCell id="cKL6_XldvzGLVFUlhVQX-5" value="&lt;u&gt;Topic-ID&lt;/u&gt;" style="ellipse;whiteSpace=wrap;html=1;strokeColor=#0F8B8D;fillColor=none;fontStyle=1;fontFamily=Times New Roman;rounded=1;labelBackgroundColor=none;fontColor=#143642;strokeWidth=2;" parent="1" vertex="1">
          <mxGeometry x="1036" y="963" width="80" height="30" as="geometry" />
        </mxCell>
        <mxCell id="cKL6_XldvzGLVFUlhVQX-6" value="" style="endArrow=none;html=1;rounded=1;entryX=1;entryY=0.75;entryDx=0;entryDy=0;fontSize=12;fontStyle=1;fontFamily=Times New Roman;exitX=0;exitY=0.5;exitDx=0;exitDy=0;labelBackgroundColor=none;strokeColor=#A8201A;fontColor=#143642;strokeWidth=2;" parent="1" source="cKL6_XldvzGLVFUlhVQX-5" target="7eaRc9s0AeY9biqjr4J9-212" edge="1">
          <mxGeometry relative="1" as="geometry">
            <mxPoint x="1034" y="955" as="sourcePoint" />
            <mxPoint x="980" y="965" as="targetPoint" />
          </mxGeometry>
        </mxCell>
        <mxCell id="iitr8_w2NvcruE1Lk_e8-3" value="" style="endArrow=none;html=1;rounded=1;shape=link;entryX=1;entryY=0.5;entryDx=0;entryDy=0;exitX=0;exitY=0.5;exitDx=0;exitDy=0;edgeStyle=orthogonalEdgeStyle;curved=1;labelBackgroundColor=none;strokeColor=#A8201A;fontColor=#143642;strokeWidth=2;" parent="1" source="7eaRc9s0AeY9biqjr4J9-72" target="7eaRc9s0AeY9biqjr4J9-75" edge="1">
          <mxGeometry relative="1" as="geometry">
            <mxPoint x="600" y="264" as="sourcePoint" />
            <mxPoint x="415" y="245" as="targetPoint" />
          </mxGeometry>
        </mxCell>
        <mxCell id="7eaRc9s0AeY9biqjr4J9-75" value="&lt;font style=&quot;font-size: 14px;&quot; face=&quot;Times New Roman&quot;&gt;&lt;b&gt;M&lt;/b&gt;&lt;/font&gt;" style="text;html=1;align=center;verticalAlign=middle;resizable=0;points=[];autosize=1;strokeColor=none;fillColor=none;rounded=1;labelBackgroundColor=none;fontColor=#143642;strokeWidth=2;" parent="1" vertex="1">
          <mxGeometry x="544" y="249" width="40" height="30" as="geometry" />
        </mxCell>
        <mxCell id="iitr8_w2NvcruE1Lk_e8-12" value="" style="endArrow=none;html=1;rounded=1;exitX=1;exitY=0.5;exitDx=0;exitDy=0;entryX=0;entryY=0.5;entryDx=0;entryDy=0;shape=link;edgeStyle=orthogonalEdgeStyle;curved=1;labelBackgroundColor=none;strokeColor=#A8201A;fontColor=#143642;strokeWidth=2;" parent="1" source="7eaRc9s0AeY9biqjr4J9-8" target="7eaRc9s0AeY9biqjr4J9-56" edge="1">
          <mxGeometry relative="1" as="geometry">
            <mxPoint x="575" y="149" as="sourcePoint" />
            <mxPoint x="680" y="206" as="targetPoint" />
          </mxGeometry>
        </mxCell>
        <mxCell id="7eaRc9s0AeY9biqjr4J9-56" value="&lt;font style=&quot;font-size: 14px;&quot; face=&quot;Times New Roman&quot;&gt;&lt;b&gt;M&lt;/b&gt;&lt;/font&gt;" style="text;html=1;align=center;verticalAlign=middle;resizable=0;points=[];autosize=1;strokeColor=none;fillColor=none;rounded=1;labelBackgroundColor=none;fontColor=#143642;strokeWidth=2;" parent="1" vertex="1">
          <mxGeometry x="569.5" y="191" width="40" height="30" as="geometry" />
        </mxCell>
        <mxCell id="iitr8_w2NvcruE1Lk_e8-21" value="" style="endArrow=none;html=1;rounded=1;shape=link;entryX=0;entryY=0.5;entryDx=0;entryDy=0;exitX=1;exitY=0.5;exitDx=0;exitDy=0;edgeStyle=orthogonalEdgeStyle;curved=1;labelBackgroundColor=none;strokeColor=#A8201A;fontColor=#143642;strokeWidth=2;entryPerimeter=0;" parent="1" source="7eaRc9s0AeY9biqjr4J9-87" target="7eaRc9s0AeY9biqjr4J9-93" edge="1">
          <mxGeometry relative="1" as="geometry">
            <mxPoint x="665" y="361" as="sourcePoint" />
            <mxPoint x="850" y="296" as="targetPoint" />
          </mxGeometry>
        </mxCell>
        <mxCell id="7eaRc9s0AeY9biqjr4J9-93" value="&lt;font style=&quot;font-size: 14px;&quot; face=&quot;Times New Roman&quot;&gt;&lt;b&gt;1&lt;/b&gt;&lt;/font&gt;" style="text;html=1;align=center;verticalAlign=middle;resizable=0;points=[];autosize=1;strokeColor=none;fillColor=none;rounded=1;labelBackgroundColor=none;fontColor=#143642;strokeWidth=2;" parent="1" vertex="1">
          <mxGeometry x="676" y="346" width="30" height="30" as="geometry" />
        </mxCell>
        <mxCell id="iitr8_w2NvcruE1Lk_e8-22" value="" style="endArrow=none;html=1;rounded=1;shape=link;entryX=0;entryY=0.5;entryDx=0;entryDy=0;exitX=1;exitY=0.5;exitDx=0;exitDy=0;edgeStyle=orthogonalEdgeStyle;curved=1;labelBackgroundColor=none;strokeColor=#A8201A;fontColor=#143642;strokeWidth=2;" parent="1" source="7eaRc9s0AeY9biqjr4J9-78" target="7eaRc9s0AeY9biqjr4J9-92" edge="1">
          <mxGeometry relative="1" as="geometry">
            <mxPoint x="265" y="386" as="sourcePoint" />
            <mxPoint x="600" y="361" as="targetPoint" />
          </mxGeometry>
        </mxCell>
        <mxCell id="7eaRc9s0AeY9biqjr4J9-92" value="&lt;font style=&quot;font-size: 14px;&quot; face=&quot;Times New Roman&quot;&gt;&lt;b&gt;M&lt;/b&gt;&lt;/font&gt;" style="text;html=1;align=center;verticalAlign=middle;resizable=0;points=[];autosize=1;strokeColor=none;fillColor=none;rounded=1;labelBackgroundColor=none;fontColor=#143642;strokeWidth=2;" parent="1" vertex="1">
          <mxGeometry x="537" y="346" width="40" height="30" as="geometry" />
        </mxCell>
        <mxCell id="iitr8_w2NvcruE1Lk_e8-23" value="" style="endArrow=none;html=1;rounded=1;shape=link;entryX=0;entryY=0.5;entryDx=0;entryDy=0;exitX=1;exitY=0.5;exitDx=0;exitDy=0;edgeStyle=orthogonalEdgeStyle;curved=1;labelBackgroundColor=none;strokeColor=#A8201A;fontColor=#143642;strokeWidth=2;" parent="1" source="7eaRc9s0AeY9biqjr4J9-72" target="7eaRc9s0AeY9biqjr4J9-77" edge="1">
          <mxGeometry relative="1" as="geometry">
            <mxPoint x="665" y="264" as="sourcePoint" />
            <mxPoint x="850" y="281" as="targetPoint" />
          </mxGeometry>
        </mxCell>
        <mxCell id="7eaRc9s0AeY9biqjr4J9-77" value="&lt;font style=&quot;font-size: 14px;&quot; face=&quot;Times New Roman&quot;&gt;&lt;b&gt;1&lt;/b&gt;&lt;/font&gt;" style="text;html=1;align=center;verticalAlign=middle;resizable=0;points=[];autosize=1;strokeColor=none;fillColor=none;rounded=1;labelBackgroundColor=none;fontColor=#143642;strokeWidth=2;" parent="1" vertex="1">
          <mxGeometry x="692" y="249" width="30" height="30" as="geometry" />
        </mxCell>
        <mxCell id="iitr8_w2NvcruE1Lk_e8-24" value="" style="endArrow=none;html=1;rounded=1;shape=link;exitX=1;exitY=0.5;exitDx=0;exitDy=0;edgeStyle=orthogonalEdgeStyle;curved=1;labelBackgroundColor=none;strokeColor=#A8201A;fontColor=#143642;strokeWidth=2;" parent="1" source="7eaRc9s0AeY9biqjr4J9-47" edge="1">
          <mxGeometry relative="1" as="geometry">
            <mxPoint x="728" y="206" as="sourcePoint" />
            <mxPoint x="737" y="206" as="targetPoint" />
          </mxGeometry>
        </mxCell>
        <mxCell id="7eaRc9s0AeY9biqjr4J9-53" value="&lt;font style=&quot;font-size: 14px;&quot; face=&quot;Times New Roman&quot;&gt;&lt;b&gt;1&lt;/b&gt;&lt;/font&gt;" style="text;html=1;align=center;verticalAlign=middle;resizable=0;points=[];autosize=1;strokeColor=none;fillColor=none;rounded=1;labelBackgroundColor=none;fontColor=#143642;strokeWidth=2;" parent="1" vertex="1">
          <mxGeometry x="733" y="187" width="30" height="30" as="geometry" />
        </mxCell>
        <mxCell id="iitr8_w2NvcruE1Lk_e8-29" value="" style="endArrow=none;html=1;rounded=1;entryX=1;entryY=0.5;entryDx=0;entryDy=0;exitX=0;exitY=0.5;exitDx=0;exitDy=0;edgeStyle=orthogonalEdgeStyle;labelBackgroundColor=none;strokeColor=#A8201A;fontColor=#143642;strokeWidth=2;" parent="1" source="7eaRc9s0AeY9biqjr4J9-263" target="iitr8_w2NvcruE1Lk_e8-28" edge="1">
          <mxGeometry relative="1" as="geometry">
            <mxPoint x="565" y="516" as="sourcePoint" />
            <mxPoint x="320" y="570" as="targetPoint" />
          </mxGeometry>
        </mxCell>
        <mxCell id="iitr8_w2NvcruE1Lk_e8-28" value="&lt;font style=&quot;font-size: 14px;&quot; face=&quot;Times New Roman&quot;&gt;&lt;b&gt;M&lt;/b&gt;&lt;/font&gt;" style="text;html=1;align=center;verticalAlign=middle;resizable=0;points=[];autosize=1;strokeColor=none;fillColor=none;rounded=1;labelBackgroundColor=none;fontColor=#143642;strokeWidth=2;" parent="1" vertex="1">
          <mxGeometry x="523" y="486" width="40" height="30" as="geometry" />
        </mxCell>
        <mxCell id="iitr8_w2NvcruE1Lk_e8-34" value="" style="endArrow=none;html=1;rounded=1;entryX=0.5;entryY=0;entryDx=0;entryDy=0;exitX=0.5;exitY=1;exitDx=0;exitDy=0;edgeStyle=orthogonalEdgeStyle;labelBackgroundColor=none;strokeColor=#A8201A;fontColor=#143642;strokeWidth=2;" parent="1" source="7eaRc9s0AeY9biqjr4J9-263" target="iitr8_w2NvcruE1Lk_e8-25" edge="1">
          <mxGeometry relative="1" as="geometry">
            <mxPoint x="598" y="551" as="sourcePoint" />
            <mxPoint x="406" y="682" as="targetPoint" />
          </mxGeometry>
        </mxCell>
        <mxCell id="iitr8_w2NvcruE1Lk_e8-25" value="&lt;font style=&quot;font-size: 14px;&quot; face=&quot;Times New Roman&quot;&gt;&lt;b&gt;M&lt;/b&gt;&lt;/font&gt;" style="text;html=1;align=center;verticalAlign=middle;resizable=0;points=[];autosize=1;strokeColor=none;fillColor=none;rounded=1;labelBackgroundColor=none;fontColor=#143642;strokeWidth=2;" parent="1" vertex="1">
          <mxGeometry x="577.5" y="578" width="40" height="30" as="geometry" />
        </mxCell>
        <mxCell id="iitr8_w2NvcruE1Lk_e8-37" value="" style="endArrow=none;html=1;rounded=1;entryX=0;entryY=0.533;entryDx=0;entryDy=0;exitX=1;exitY=0.5;exitDx=0;exitDy=0;edgeStyle=orthogonalEdgeStyle;labelBackgroundColor=none;strokeColor=#A8201A;fontColor=#143642;strokeWidth=2;entryPerimeter=0;" parent="1" source="7eaRc9s0AeY9biqjr4J9-263" target="iitr8_w2NvcruE1Lk_e8-35" edge="1">
          <mxGeometry relative="1" as="geometry">
            <mxPoint x="630" y="516" as="sourcePoint" />
            <mxPoint x="910" y="311" as="targetPoint" />
          </mxGeometry>
        </mxCell>
        <mxCell id="iitr8_w2NvcruE1Lk_e8-35" value="&lt;font style=&quot;font-size: 14px;&quot; face=&quot;Times New Roman&quot;&gt;&lt;b&gt;M&lt;/b&gt;&lt;/font&gt;" style="text;html=1;align=center;verticalAlign=middle;resizable=0;points=[];autosize=1;strokeColor=none;fillColor=none;rounded=1;labelBackgroundColor=none;fontColor=#143642;strokeWidth=2;" parent="1" vertex="1">
          <mxGeometry x="680" y="500" width="40" height="30" as="geometry" />
        </mxCell>
        <mxCell id="cgjNUOlxkd2wtI8anm0e-1" value="Answer" style="ellipse;whiteSpace=wrap;html=1;strokeColor=#0F8B8D;fillColor=none;fontStyle=1;fontFamily=Times New Roman;rounded=1;labelBackgroundColor=none;fontColor=#143642;strokeWidth=2;" parent="1" vertex="1">
          <mxGeometry x="255" y="762" width="80" height="30" as="geometry" />
        </mxCell>
        <mxCell id="cgjNUOlxkd2wtI8anm0e-2" value="Answer" style="ellipse;whiteSpace=wrap;html=1;strokeColor=#0F8B8D;fillColor=none;fontStyle=1;fontFamily=Times New Roman;rounded=1;labelBackgroundColor=none;fontColor=#143642;strokeWidth=2;" parent="1" vertex="1">
          <mxGeometry x="625" y="433" width="80" height="30" as="geometry" />
        </mxCell>
        <mxCell id="cgjNUOlxkd2wtI8anm0e-5" value="Evaluate" style="shape=rhombus;perimeter=rhombusPerimeter;whiteSpace=wrap;html=1;align=center;strokeColor=#0F8B8D;strokeWidth=2;fillColor=none;fontFamily=Times New Roman;rounded=1;fontStyle=1;shadow=0;labelBackgroundColor=none;fontColor=#143642;" parent="1" vertex="1">
          <mxGeometry x="385" y="918" width="65" height="70" as="geometry" />
        </mxCell>
        <mxCell id="cgjNUOlxkd2wtI8anm0e-13" value="" style="endArrow=none;html=1;rounded=1;entryX=0;entryY=0.75;entryDx=0;entryDy=0;edgeStyle=orthogonalEdgeStyle;labelBackgroundColor=none;strokeColor=#A8201A;fontColor=#143642;strokeWidth=2;exitX=-0.05;exitY=0.5;exitDx=0;exitDy=0;exitPerimeter=0;shape=link;" parent="1" source="cgjNUOlxkd2wtI8anm0e-22" target="7eaRc9s0AeY9biqjr4J9-249" edge="1">
          <mxGeometry relative="1" as="geometry">
            <mxPoint x="306" y="1020" as="sourcePoint" />
            <mxPoint x="110" y="948" as="targetPoint" />
            <Array as="points">
              <mxPoint x="73" y="952" />
              <mxPoint x="73" y="585" />
            </Array>
          </mxGeometry>
        </mxCell>
        <mxCell id="cgjNUOlxkd2wtI8anm0e-14" value="Grade" style="ellipse;whiteSpace=wrap;html=1;strokeColor=#0F8B8D;fillColor=none;fontStyle=1;fontFamily=Times New Roman;rounded=1;labelBackgroundColor=none;fontColor=#143642;strokeWidth=2;dashed=1;" parent="1" vertex="1">
          <mxGeometry x="301" y="871" width="80" height="30" as="geometry" />
        </mxCell>
        <mxCell id="cgjNUOlxkd2wtI8anm0e-15" value="" style="endArrow=none;html=1;rounded=1;entryX=0;entryY=0;entryDx=0;entryDy=0;fontSize=12;fontStyle=1;fontFamily=Times New Roman;exitX=0.5;exitY=1;exitDx=0;exitDy=0;labelBackgroundColor=none;strokeColor=#A8201A;fontColor=#143642;strokeWidth=2;" parent="1" source="cgjNUOlxkd2wtI8anm0e-14" target="cgjNUOlxkd2wtI8anm0e-5" edge="1">
          <mxGeometry relative="1" as="geometry">
            <mxPoint x="385.5" y="881" as="sourcePoint" />
            <mxPoint x="431.5" y="914" as="targetPoint" />
          </mxGeometry>
        </mxCell>
        <mxCell id="cgjNUOlxkd2wtI8anm0e-16" value="" style="endArrow=none;html=1;rounded=1;entryX=0;entryY=0.75;entryDx=0;entryDy=0;exitX=1.033;exitY=0.433;exitDx=0;exitDy=0;edgeStyle=orthogonalEdgeStyle;labelBackgroundColor=none;strokeColor=#A8201A;fontColor=#143642;strokeWidth=2;exitPerimeter=0;" parent="1" source="cgjNUOlxkd2wtI8anm0e-25" target="7eaRc9s0AeY9biqjr4J9-179" edge="1">
          <mxGeometry relative="1" as="geometry">
            <mxPoint x="458" y="955" as="sourcePoint" />
            <mxPoint x="858" y="729" as="targetPoint" />
            <Array as="points">
              <mxPoint x="731" y="954" />
              <mxPoint x="731" y="729" />
              <mxPoint x="850" y="729" />
            </Array>
          </mxGeometry>
        </mxCell>
        <mxCell id="cgjNUOlxkd2wtI8anm0e-22" value="&lt;font style=&quot;font-size: 14px;&quot; face=&quot;Times New Roman&quot;&gt;&lt;b&gt;M&lt;/b&gt;&lt;/font&gt;" style="text;html=1;align=center;verticalAlign=middle;resizable=0;points=[];autosize=1;strokeColor=none;fillColor=none;rounded=1;labelBackgroundColor=none;fontColor=#143642;strokeWidth=2;" parent="1" vertex="1">
          <mxGeometry x="312" y="937" width="40" height="30" as="geometry" />
        </mxCell>
        <mxCell id="cgjNUOlxkd2wtI8anm0e-24" value="" style="endArrow=none;html=1;rounded=1;entryX=0;entryY=0.5;entryDx=0;entryDy=0;exitX=1.025;exitY=0.533;exitDx=0;exitDy=0;edgeStyle=orthogonalEdgeStyle;labelBackgroundColor=none;strokeColor=#A8201A;fontColor=#143642;strokeWidth=2;exitPerimeter=0;shape=link;" parent="1" source="cgjNUOlxkd2wtI8anm0e-22" target="cgjNUOlxkd2wtI8anm0e-5" edge="1">
          <mxGeometry relative="1" as="geometry">
            <mxPoint x="250" y="1040" as="sourcePoint" />
            <mxPoint x="372" y="1040" as="targetPoint" />
          </mxGeometry>
        </mxCell>
        <mxCell id="cgjNUOlxkd2wtI8anm0e-26" value="" style="endArrow=none;html=1;rounded=1;entryX=-0.1;entryY=0.367;entryDx=0;entryDy=0;exitX=1;exitY=0.5;exitDx=0;exitDy=0;edgeStyle=orthogonalEdgeStyle;labelBackgroundColor=none;strokeColor=#A8201A;fontColor=#143642;strokeWidth=2;entryPerimeter=0;" parent="1" source="cgjNUOlxkd2wtI8anm0e-5" target="cgjNUOlxkd2wtI8anm0e-25" edge="1">
          <mxGeometry relative="1" as="geometry">
            <mxPoint x="458" y="955" as="sourcePoint" />
            <mxPoint x="858" y="729" as="targetPoint" />
            <Array as="points" />
          </mxGeometry>
        </mxCell>
        <mxCell id="cgjNUOlxkd2wtI8anm0e-25" value="&lt;font style=&quot;font-size: 14px;&quot; face=&quot;Times New Roman&quot;&gt;&lt;b&gt;1&lt;/b&gt;&lt;/font&gt;" style="text;html=1;align=center;verticalAlign=middle;resizable=0;points=[];autosize=1;strokeColor=none;fillColor=none;rounded=1;labelBackgroundColor=none;fontColor=#143642;strokeWidth=2;" parent="1" vertex="1">
          <mxGeometry x="477" y="942" width="30" height="30" as="geometry" />
        </mxCell>
      </root>
    </mxGraphModel>
  </diagram>
</mxfile>
